<?xml version="1.0" encoding="utf-8"?>
<!DOCTYPE svg PUBLIC "-//W3C//DTD SVG 20010904//EN" "http://www.w3.org/TR/2001/REC-SVG-20010904/DTD/svg10.dtd">
<svg version="1.0" xmlns="http://www.w3.org/2000/svg" width="40px" height="47px" viewBox="0 0 40 47" preserveAspectRatio="xMidYMid meet">
 <g fill="#000000">
  <path d="M2.63 46.66 c0 -0.01 0.25 -0.24 0.56 -0.53 0.31 -0.28 0.89 -0.84 1.31 -1.24 0.41 -0.40 1.41 -1.35 2.22 -2.12 l1.47 -1.39 0.09 -0.23 0.09 -0.23 -0.08 -0.33 c-0.35 -1.45 0.05 -3.18 1.10 -4.77 0.13 -0.20 0.31 -0.45 0.40 -0.56 l0.15 -0.19 -0.89 -1.72 c-0.49 -0.95 -0.89 -1.73 -0.90 -1.74 -0.01 -0.01 -0.12 0.01 -0.24 0.05 l-0.24 0.06 -0.27 -0.09 c-1.01 -0.32 -1.66 -0.94 -1.76 -1.66 -0.03 -0.20 -0.03 -0.21 0.12 -0.49 0.44 -0.81 1.13 -1.49 1.93 -1.89 l0.30 -0.15 0.31 0.18 c0.30 0.18 0.31 0.18 0.62 0.20 0.34 0.02 0.49 0.07 0.67 0.24 0.09 0.09 0.10 0.09 0.14 0.03 0.02 -0.04 0.13 -0.17 0.24 -0.30 l0.20 -0.24 -0.03 -0.18 c-0.03 -0.17 -0.03 -0.18 0.09 -0.30 0.14 -0.15 0.16 -0.15 -0.46 -0.08 -1.50 0.17 -2.60 0.41 -3.89 0.82 -1.66 0.54 -2.65 1.18 -3.02 1.97 -0.10 0.21 -0.11 0.25 -0.15 0.86 -0.02 0.35 -0.05 0.64 -0.06 0.64 -0.01 0 -0.03 -0.03 -0.06 -0.06 -0.05 -0.06 -0.05 -0.04 -0.11 0.75 l-0.02 0.31 -0.47 -0.89 c-0.56 -1.08 -0.60 -1.17 -0.81 -1.80 -0.46 -1.38 -0.66 -2.60 -0.69 -4.06 -0.02 -1.03 0.01 -1.59 0.14 -2.36 0.39 -2.34 1.37 -4.29 3.07 -6.12 l0.41 -0.44 0 -0.40 c0 -0.66 -0.07 -0.95 -0.44 -1.76 -0.17 -0.38 -0.31 -0.69 -0.31 -0.70 0 -0.01 0.16 0.05 0.35 0.13 0.19 0.08 0.37 0.14 0.39 0.15 0.02 0.01 0.04 -0.01 0.04 -0.04 0 -0.03 0.03 -0.05 0.06 -0.05 0.08 0 0.71 0.24 0.82 0.32 0.10 0.07 0.10 0.06 0.13 -0.04 0.02 -0.07 0.04 -0.08 0.09 -0.07 0.05 0.01 0.07 -0.01 0.10 -0.12 0.54 -2.10 1.60 -4.17 3.03 -5.95 0.18 -0.23 0.33 -0.42 0.33 -0.43 0 -0.03 -0.43 0.02 -0.87 0.11 -0.54 0.11 -1.61 0.46 -2.10 0.70 -0.21 0.10 -0.53 0.28 -0.71 0.40 -0.31 0.21 -0.86 0.72 -1.02 0.94 l-0.07 0.10 0.16 -0.05 c0.08 -0.03 0.19 -0.05 0.23 -0.05 l0.08 0 -0.07 0.13 c-0.06 0.11 -0.06 0.13 -0.02 0.13 0.10 0 0.05 0.14 -0.25 0.72 -0.43 0.82 -0.61 1.05 -1.08 1.33 -0.14 0.09 -0.24 0.12 -0.41 0.13 -0.12 0.01 -0.36 0.04 -0.53 0.05 -0.37 0.04 -0.68 0.01 -1.15 -0.12 l-0.34 -0.09 0.02 -0.43 c0.06 -1.33 0.74 -2.69 1.82 -3.64 1.10 -0.96 2.55 -1.53 4.43 -1.72 0.27 -0.03 0.64 -0.07 0.82 -0.09 0.44 -0.05 2.02 -0.05 2.55 0 0.37 0.03 2.13 0.27 2.38 0.32 0.08 0.02 0.09 0.04 0.09 0.13 0 0.11 -0.02 0.12 -0.74 0.58 -0.78 0.49 -1.06 0.70 -1.52 1.15 -0.37 0.36 -0.40 0.42 -0.11 0.24 0.23 -0.15 0.46 -0.21 0.37 -0.10 -0.07 0.08 -0.01 0.06 0.43 -0.20 1.95 -1.13 4.65 -2.32 6.54 -2.89 0.43 -0.13 0.80 -0.23 0.82 -0.23 0.02 0 -0.04 0.04 -0.12 0.09 -0.11 0.07 -0.13 0.09 -0.09 0.10 0.13 0.03 0.02 0.13 -0.49 0.46 -0.45 0.29 -0.66 0.46 -1.32 1.06 -1.77 1.60 -3.49 3.48 -4.47 4.87 l-0.17 0.24 0.16 -0.05 c0.21 -0.06 0.32 -0.06 0.30 0 -0.02 0.06 0.04 0.06 0.23 0.01 0.10 -0.03 0.13 -0.03 0.14 0 0.01 0.02 0.03 0.04 0.06 0.04 0.03 0 0.05 0.02 0.05 0.05 0 0.04 -0.52 0.76 -1.27 1.76 l-0.29 0.39 0.24 0.06 c0.32 0.08 1 0.31 1.39 0.47 0.17 0.07 0.40 0.16 0.51 0.19 0.19 0.06 0.20 0.06 0.23 0 0.02 -0.04 0.06 -0.05 0.11 -0.04 0.07 0.02 0.10 -0.03 0.32 -0.47 1.64 -3.22 3.94 -6.25 6.45 -8.54 1.81 -1.65 3.61 -2.89 5.70 -3.92 1.04 -0.52 1.67 -0.78 2.52 -1.06 0.84 -0.28 1.80 -0.50 2 -0.46 l0.10 0.02 0 0.57 c0 0.66 -0.05 1.08 -0.22 1.76 -0.29 1.16 -0.83 2.39 -1.52 3.41 -0.14 0.21 -0.13 0.23 0.07 0.12 0.17 -0.08 0.31 -0.09 0.28 -0.01 -0.02 0.04 -0.01 0.05 0.03 0.03 0.03 -0.01 0.24 -0.10 0.48 -0.21 1.58 -0.68 3.53 -1.29 5.22 -1.61 1.07 -0.21 2.43 -0.36 3.44 -0.40 l0.62 -0.02 0 0.10 c0 0.23 -0.77 1.81 -1.34 2.76 -1.34 2.24 -2.94 4.26 -4.85 6.12 -0.55 0.53 -1.40 1.31 -1.83 1.66 l-0.13 0.11 0.15 0 c0.12 0 0.14 0.01 0.10 0.05 -0.04 0.04 0.04 0.05 0.67 0.05 l0.71 0 1.59 1.59 1.59 1.59 0 5.12 0 5.12 -0.45 0.45 -0.45 0.45 0.45 0.45 0.45 0.45 0 5.08 0 5.08 -1.58 1.58 -1.57 1.57 -3.08 0 c-1.70 0 -4.80 -0.01 -6.91 -0.02 l-3.83 -0.02 0 -0.73 c0 -0.64 -0.01 -0.73 -0.05 -0.71 -0.04 0.01 -0.05 -0.01 -0.05 -0.10 l0 -0.12 -0.27 0.21 c-0.87 0.68 -2.20 1.38 -3.02 1.59 -0.52 0.13 -0.86 0.18 -2.02 0.27 -1.06 0.08 -2.18 -0.13 -3.02 -0.57 -0.23 -0.12 -0.33 -0.16 -0.38 -0.14 -0.04 0.01 -0.12 0.02 -0.17 0.02 -0.07 0 -0.74 0.35 -1.93 0.99 -2.09 1.13 -3.64 1.89 -4.58 2.25 -0.61 0.23 -0.70 0.26 -0.70 0.24z m2.71 -1.70 c0.28 -0.14 1.32 -0.69 2.31 -1.22 2.22 -1.21 2.26 -1.22 2.67 -0.95 0.80 0.52 1.89 0.79 2.91 0.74 1.44 -0.07 2.99 -0.61 4.33 -1.51 0.54 -0.36 1.21 -0.89 1.17 -0.93 -0.01 -0.01 -0.15 0.08 -0.30 0.21 -1.39 1.17 -3.10 1.91 -4.75 2.07 -0.48 0.05 -1.35 0.02 -1.74 -0.05 -0.65 -0.12 -1.19 -0.33 -1.65 -0.63 l-0.28 -0.19 -0.21 0.05 c-0.16 0.04 -0.71 0.32 -2.07 1.07 -1.99 1.08 -2.06 1.11 -2.06 0.90 0 -0.11 0.09 -0.20 1.47 -1.51 l1.47 -1.40 0.14 -0.34 0.15 -0.34 -0.09 -0.32 c-0.07 -0.27 -0.09 -0.42 -0.10 -0.94 -0.01 -0.39 -0 -0.72 0.02 -0.92 0.18 -1.38 0.93 -2.80 2.11 -4 l0.36 -0.37 -0.49 -0.49 c-0.56 -0.56 -0.54 -0.55 -0.54 -0.09 l0 0.24 -0.11 0 c-0.11 0 -0.11 -0.01 -0.38 -0.54 -0.68 -1.35 -1.24 -2.41 -1.27 -2.41 -0.01 0 -0.17 0.03 -0.35 0.06 -0.31 0.06 -0.33 0.06 -0.53 0.01 -0.34 -0.09 -0.73 -0.30 -0.97 -0.52 -0.27 -0.25 -0.39 -0.47 -0.39 -0.73 0 -0.17 0.02 -0.22 0.17 -0.47 0.34 -0.57 0.77 -0.99 1.35 -1.34 0.27 -0.16 0.36 -0.16 0.66 0.02 0.23 0.13 0.25 0.14 0.58 0.16 0.39 0.02 0.44 0.05 0.53 0.29 l0.05 0.13 0 -0.11 c0 -0.09 -0.03 -0.14 -0.13 -0.24 -0.15 -0.15 -0.31 -0.20 -0.62 -0.20 -0.21 0 -0.25 -0.01 -0.49 -0.15 l-0.26 -0.15 -0.27 0.15 c-0.66 0.37 -1.24 0.98 -1.60 1.67 l-0.11 0.21 0.06 0.18 c0.12 0.39 0.52 0.77 1.07 1.04 0.48 0.22 0.53 0.23 0.90 0.16 0.17 -0.03 0.33 -0.05 0.36 -0.04 0.03 0.01 0.46 0.83 0.96 1.81 l0.92 1.79 0.01 -0.54 0.01 -0.54 0.11 0 c0.09 0 0.15 0.04 0.36 0.26 0.35 0.35 0.35 0.38 0 0.76 -0.18 0.20 -0.28 0.28 -0.33 0.28 -0.06 0 -0.08 0.02 -0.08 0.08 0 0.04 -0.07 0.17 -0.17 0.29 -1.11 1.39 -1.74 3.09 -1.63 4.42 0.02 0.18 0.07 0.47 0.11 0.66 0.05 0.18 0.08 0.39 0.08 0.46 0 0.17 -0.21 0.65 -0.35 0.78 -0.28 0.26 -3.42 3.26 -3.52 3.36 -0.06 0.07 -0.11 0.12 -0.10 0.12 0.01 0 0.25 -0.11 0.53 -0.25z m8.15 -2.83 l0.80 -0.61 -0.06 -0.20 c-0.30 -1.04 -1.03 -1.87 -1.97 -2.25 l-0.25 -0.10 -0.60 0.21 c-0.33 0.11 -0.61 0.22 -0.61 0.23 -0.01 0.01 0.08 0.09 0.19 0.17 0.42 0.31 0.80 0.78 0.97 1.20 0.19 0.48 0.28 1.13 0.22 1.67 l-0.03 0.26 0.13 0.01 c0.41 0.04 0.33 0.08 1.21 -0.59z m20.12 -0.92 l1.29 -1.29 0 -4.65 0 -4.65 -0.62 -0.62 c-0.53 -0.53 -0.62 -0.63 -0.62 -0.72 0 -0.09 0.09 -0.19 0.62 -0.72 l0.62 -0.62 0 -4.68 0 -4.68 -1.31 -1.31 -1.31 -1.31 -1.36 0 -1.36 0 -0.29 0.21 c-1.33 0.96 -3.18 2.05 -4.69 2.75 -1.23 0.57 -2.91 1.24 -4.12 1.64 l-0.53 0.17 0 0.83 0 0.83 0.48 0 0.48 0 0 0.86 0 0.86 0.18 0.14 c0.19 0.15 1.02 0.98 1.18 1.19 l0.10 0.13 0.41 -0.02 c0.52 -0.03 0.79 -0.07 1.78 -0.30 0.44 -0.10 0.84 -0.19 0.89 -0.19 0.08 0 0.09 0.01 0.09 0.11 0 0.09 -0.10 0.24 -0.54 0.82 -0.59 0.78 -0.72 0.91 -1.28 1.25 -0.17 0.11 -0.30 0.20 -0.28 0.22 0.02 0.01 0.23 0.05 0.47 0.08 l0.44 0.06 0 0.12 0 0.12 -0.88 0.46 c-0.96 0.51 -1.28 0.63 -2.03 0.82 l-0.50 0.13 -0.01 3.39 -0.01 3.39 -0.48 0 -0.48 0 0 3.23 0 3.23 6.19 0 6.19 0 1.29 -1.29z m-24.07 0.41 c0.23 -0.16 0.42 -0.31 0.42 -0.32 0 -0.03 -0.26 -0.28 -0.37 -0.35 -0.11 -0.07 -0.13 -0.07 -0.13 0.03 0 0.13 -0.33 0.82 -0.46 0.96 l-0.12 0.13 0.12 -0.08 c0.06 -0.05 0.31 -0.22 0.54 -0.38z m6.98 0.14 c0 -0 0.08 -0.15 0.17 -0.32 0.09 -0.17 0.27 -0.50 0.39 -0.73 l0.22 -0.42 -0.21 -0.36 c-0.27 -0.48 -0.55 -0.84 -0.89 -1.19 -0.37 -0.37 -0.67 -0.59 -1.09 -0.80 l-0.34 -0.17 -0.49 0.24 c-0.27 0.13 -0.50 0.24 -0.52 0.24 -0.08 0 -0.01 0.06 0.18 0.17 0.54 0.32 1 0.84 1.35 1.53 0.25 0.48 0.49 1.32 0.56 1.94 l0.02 0.19 0.32 -0.15 c0.18 -0.08 0.32 -0.15 0.33 -0.16z m2.09 -4.50 c-0.40 -0.36 -0.97 -0.68 -1.35 -0.77 -0.29 -0.07 -0.35 -0.06 -0.49 0.04 -0.07 0.05 -0.24 0.18 -0.39 0.28 l-0.27 0.18 0.27 0.14 c1.07 0.54 1.93 1.52 2.27 2.55 l0.08 0.24 0.01 -1.28 0.01 -1.28 -0.12 -0.11z m-8.16 0.32 c0.11 -0.09 0.29 -0.20 0.41 -0.26 0.18 -0.08 0.26 -0.10 0.49 -0.10 l0.28 -0 0.09 -0.25 c0.52 -1.43 1.59 -2.72 3.11 -3.73 0.46 -0.31 0.59 -0.38 1.12 -0.67 0.45 -0.24 0.42 -0.24 -0.22 0 -0.56 0.20 -1.59 0.71 -2.08 1.02 -1.44 0.91 -2.57 2.10 -3.24 3.43 -0.17 0.34 -0.44 0.95 -0.44 1.01 0 0.01 0.06 -0.05 0.14 -0.14 0.08 -0.09 0.23 -0.23 0.34 -0.31z m8.28 -2.04 l0 -0.36 -0.12 -0.02 c-0.31 -0.05 -0.35 -0.04 -0.55 0.20 -0.10 0.12 -0.18 0.23 -0.19 0.24 -0 0.01 0.08 0.04 0.18 0.06 0.11 0.02 0.28 0.08 0.39 0.14 0.11 0.05 0.22 0.10 0.24 0.10 0.03 0 0.04 -0.09 0.04 -0.36z m0.76 -2.09 c-0.12 -0.11 -0.28 -0.25 -0.37 -0.31 l-0.16 -0.11 0 0.17 c0 0.25 -0.06 0.61 -0.15 0.87 l-0.08 0.23 0.15 0 c0.16 0 0.50 0.10 0.68 0.20 l0.12 0.06 0.01 -0.45 0.01 -0.46 -0.21 -0.20z m-7.58 0.35 c1.05 -0.82 2.37 -1.43 3.62 -1.68 0.20 -0.04 0.36 -0.09 0.36 -0.10 0 -0.02 -0.17 -0.16 -0.39 -0.32 -0.45 -0.34 -0.99 -0.87 -1.28 -1.25 -0.11 -0.15 -0.21 -0.27 -0.22 -0.26 -0.01 0 -0.11 0.13 -0.21 0.29 -0.36 0.53 -0.83 1.08 -1.52 1.77 -0.38 0.38 -0.76 0.75 -0.85 0.83 -0.14 0.12 -0.16 0.15 -0.18 0.30 -0.02 0.16 0.05 0.48 0.14 0.70 l0.05 0.11 0.11 -0.09 c0.06 -0.05 0.23 -0.18 0.37 -0.28z m7.81 -1.16 c-0.01 -0.02 -0.12 -0.09 -0.24 -0.16 -0.20 -0.11 -0.22 -0.13 -0.22 -0.23 0 -0.06 0.06 -0.23 0.14 -0.38 0.20 -0.40 0.33 -0.81 0.33 -1.03 -0 -0.19 -0 -0.18 -0.10 0.18 -0.13 0.49 -0.38 1.09 -0.53 1.26 -0.03 0.03 -0.04 0.06 -0.04 0.07 0.01 0.01 0.09 0.04 0.18 0.09 0.09 0.04 0.23 0.12 0.32 0.17 0.15 0.09 0.19 0.10 0.15 0.04z m-0.85 -1.12 c0.15 -0.31 0.28 -0.68 0.35 -1.03 0.06 -0.28 0.12 -0.76 0.12 -0.92 l0 -0.11 -0.19 0.02 c-0.11 0.01 -0.30 0.04 -0.42 0.06 l-0.23 0.04 -0.10 0.19 c-0.27 0.54 -0.24 1.12 0.09 1.83 0.17 0.37 0.16 0.37 0.38 -0.08z m-7.55 -0.02 c0.13 -0.09 0.21 -0.17 0.18 -0.17 -0.03 0 -0.11 0.04 -0.18 0.10 -0.07 0.05 -0.17 0.10 -0.23 0.10 -0.11 0 -0.14 -0.03 -0.95 -0.80 -0.27 -0.26 -0.52 -0.49 -0.56 -0.52 -0.09 -0.07 -0.10 -0.23 -0.01 -0.50 0.06 -0.18 0.06 -0.21 0.02 -0.35 l-0.05 -0.15 0 0.19 c-0 0.12 -0.04 0.28 -0.09 0.41 -0.05 0.12 -0.08 0.24 -0.08 0.25 0.01 0.03 1.67 1.59 1.69 1.60 0.01 0 0.12 -0.07 0.25 -0.17z m4.54 -0.68 c-0.09 -0.22 -0.19 -0.33 -0.24 -0.27 -0.01 0.01 0.31 0.52 0.34 0.52 0 0 -0.04 -0.11 -0.10 -0.25z m-13.52 -0.75 c0.03 -0.35 0.04 -0.41 0.17 -0.66 0.15 -0.31 0.50 -0.71 0.85 -0.97 1.18 -0.89 3.25 -1.50 5.97 -1.77 l0.59 -0.06 0.24 -0.20 c0.13 -0.11 0.40 -0.38 0.61 -0.59 0.32 -0.33 0.38 -0.39 0.47 -0.39 0.09 0 0.10 0.01 0.12 0.11 0.04 0.19 0.25 0.68 0.30 0.70 0.04 0.01 0.04 -0 -0.01 -0.11 -0.11 -0.26 -0.19 -0.50 -0.24 -0.78 l-0.06 -0.29 -0.25 0.30 c-0.14 0.17 -0.44 0.49 -0.67 0.71 l-0.42 0.41 -0.26 0.02 c-0.14 0.01 -0.33 0.02 -0.41 0.02 -0.14 0 -0.14 -0 -0.14 -0.11 0 -0.08 0.05 -0.19 0.18 -0.38 0.35 -0.51 0.80 -1.33 0.87 -1.60 0.03 -0.10 -0.05 -0.10 -0.33 0 -0.72 0.26 -1.62 0.94 -2.63 1.99 l-0.51 0.53 -0.35 0.09 c-2.26 0.56 -3.74 1.52 -4.15 2.67 -0.04 0.13 -0.08 0.27 -0.08 0.32 0 0.15 -0.03 0.19 -0.15 0.19 -0.11 0 -0.11 -0.01 -0.23 -0.31 -0.38 -0.98 -0.66 -2.24 -0.77 -3.41 -0.06 -0.60 -0.07 -1.95 -0.02 -2.51 0.17 -1.85 0.77 -3.57 1.75 -5.05 0.18 -0.28 0.41 -0.61 0.51 -0.73 0.17 -0.21 0.19 -0.22 0.30 -0.21 0.15 0.01 0.17 0.05 0.17 0.58 0 0.47 -0.05 0.81 -0.22 1.31 -0.12 0.37 -0.48 1.13 -0.71 1.52 -0.17 0.29 -0.05 0.15 0.28 -0.32 0.55 -0.79 1.23 -2.02 1.60 -2.90 0.05 -0.12 0.12 -0.28 0.15 -0.35 0.11 -0.24 0.46 -1.19 0.54 -1.48 0.05 -0.16 0.10 -0.44 0.12 -0.63 0.33 -2.86 1.72 -5.79 3.91 -8.20 0.21 -0.23 0.30 -0.36 0.28 -0.37 -0.02 -0.01 -0.27 -0.03 -0.54 -0.03 -1.80 0 -3.44 0.47 -4.62 1.34 -0.41 0.30 -0.91 0.83 -1.19 1.25 -0.24 0.36 -0.53 0.93 -0.53 1.02 0 0.07 0.08 0.09 0.21 0.05 0.06 -0.02 0.15 -0.03 0.20 -0.03 0.09 0 0.09 0.01 0.09 0.13 0 0.10 -0.03 0.16 -0.13 0.28 -0.42 0.51 -0.98 0.72 -1.70 0.63 -0.16 -0.02 -0.32 -0.05 -0.35 -0.06 -0.11 -0.04 -0.02 -0.73 0.17 -1.30 0.64 -1.92 2.32 -3.19 4.80 -3.61 1.21 -0.21 2.76 -0.22 4.36 -0.04 0.31 0.04 0.57 0.07 0.58 0.07 0.01 0 0.01 0.05 0.01 0.11 0 0.09 -0.03 0.13 -0.26 0.29 -0.37 0.27 -1.17 1.08 -1.53 1.55 -0.64 0.85 -1.05 1.62 -1.42 2.63 -0.07 0.20 -0.13 0.38 -0.13 0.40 0 0.02 0.05 -0.07 0.12 -0.19 0.51 -0.98 1.89 -2.09 4.10 -3.29 1.15 -0.63 3.30 -1.62 3.50 -1.62 0.10 0 0.11 0.01 0.11 0.09 0 0.07 -0.17 0.26 -0.93 1.02 -1.23 1.24 -2.01 2.12 -2.77 3.13 -0.85 1.13 -1.47 2.23 -1.72 3.02 -0.06 0.18 -0.10 0.23 -0.59 0.69 -2.02 1.92 -3.82 4.30 -4.83 6.34 -0.13 0.26 -0.21 0.44 -0.18 0.40 0.60 -0.83 1.08 -1.40 1.75 -2.05 0.85 -0.83 1.61 -1.41 2.39 -1.79 0.51 -0.25 0.87 -0.36 1.25 -0.38 l0.31 -0.02 0.04 0.16 c0.02 0.09 0.05 0.35 0.07 0.59 0.10 1.04 -0.14 2.16 -0.69 3.27 -0.36 0.73 -0.52 0.95 -1.09 1.54 -1.33 1.36 -2.67 2.22 -3.71 2.38 -0.27 0.04 -0.67 0.02 -0.83 -0.05 -0.16 -0.07 -0.34 -0.23 -0.40 -0.38 -0.13 -0.31 -0.13 -0.31 -0.11 0.02 0.02 0.46 0.10 0.65 0.40 0.95 0.16 0.16 0.31 0.27 0.46 0.34 0.40 0.19 1.09 0.31 1.54 0.26 0.21 -0.02 0.22 -0.03 0.51 -0.29 1.09 -1 2.17 -1.77 3.13 -2.25 0.60 -0.29 0.98 -0.41 1.41 -0.44 l0.31 -0.02 0.13 -0.19 c0.33 -0.49 0.84 -1.48 1.08 -2.10 0.49 -1.25 0.67 -2.30 0.59 -3.51 -0.03 -0.48 -0.04 -0.54 -0.13 -0.73 -0.17 -0.37 -0.46 -0.59 -0.89 -0.66 -0.52 -0.10 -1.41 0.16 -2.37 0.69 -0.23 0.13 -0.37 0.18 -0.45 0.18 -0.12 0 -0.12 0 -0.15 -0.17 -0.06 -0.44 0.11 -0.99 0.57 -1.80 l0.19 -0.34 0.35 0.02 c0.68 0.04 1.37 0.21 2.31 0.58 0.65 0.26 0.56 0.14 0.72 0.96 0.15 0.76 0.21 1.26 0.23 2.11 0.03 1.08 -0.07 2.02 -0.28 2.91 l-0.06 0.25 0.21 -0.10 c0.35 -0.16 0.79 -0.26 1.21 -0.28 l0.39 -0.02 -0.26 -0.57 c-0.74 -1.64 -1.23 -3.11 -1.23 -3.70 0 -0.22 0.13 -0.54 0.74 -1.77 0.71 -1.44 1.20 -2.29 2.07 -3.60 2.64 -3.99 6.04 -7.08 9.95 -9.04 0.75 -0.38 1.33 -0.63 2.07 -0.90 0.62 -0.23 1.46 -0.48 1.71 -0.50 l0.20 -0.02 -0.02 0.40 c-0.07 1.24 -0.56 2.69 -1.36 4.03 -0.41 0.68 -0.44 0.72 -0.56 0.72 -0.10 0 -0.11 -0.01 -0.11 -0.12 0 -0.07 0.02 -0.16 0.05 -0.21 0.09 -0.17 0.35 -0.92 0.43 -1.26 0.17 -0.67 0.23 -1.17 0.17 -1.57 l-0.03 -0.18 -0.15 0 c-0.23 0 -0.81 0.09 -1.21 0.18 -1.47 0.35 -3.01 1.15 -4.45 2.30 -2.51 2.01 -4.80 5.13 -6.70 9.15 -0.53 1.13 -1.35 3.07 -1.36 3.22 -0 0.10 0.58 3.42 0.60 3.45 0.01 0.01 0.14 0.06 0.28 0.09 0.15 0.04 0.38 0.12 0.52 0.18 l0.25 0.11 0 -1.94 c0 -1.97 0.02 -2.24 0.13 -2.36 0.02 -0.02 0.25 -0.31 0.51 -0.63 4.17 -5.19 9.20 -8.86 14.68 -10.72 2.10 -0.71 4.51 -1.18 6.01 -1.18 l0.36 0 0 0.14 c0 0.25 -0.79 1.69 -1.62 2.94 -1.62 2.45 -3.61 4.66 -5.95 6.62 -1.26 1.05 -2.97 2.22 -4.41 3.03 -1.14 0.63 -2.39 1.24 -2.58 1.24 -0.11 0 -0.11 -0.01 -0.11 -0.11 0 -0.11 0.01 -0.12 0.31 -0.27 0.84 -0.43 2.09 -1.20 3.06 -1.87 3.88 -2.69 6.96 -6.06 8.86 -9.70 0.19 -0.37 0.24 -0.49 0.21 -0.51 -0.13 -0.08 -1.25 -0.10 -1.88 -0.03 -3.18 0.35 -6.68 2.11 -10.04 5.05 -1.35 1.18 -2.72 2.59 -4.02 4.12 -0.90 1.06 -2.25 2.80 -2.28 2.94 -0.01 0.04 -0.09 0.50 -0.18 1.03 -0.09 0.52 -0.18 0.99 -0.19 1.03 -0.01 0.04 0.17 -0.18 0.39 -0.50 3.96 -5.60 8.61 -9.73 13.39 -11.90 0.87 -0.39 2.09 -0.83 2.32 -0.83 0.11 0 0.12 0.01 0.12 0.11 0 0.11 -0.01 0.11 -0.27 0.20 -1.05 0.37 -2.72 1.22 -3.98 2.01 -1.94 1.24 -3.67 2.65 -5.53 4.54 -1.77 1.79 -3.23 3.58 -4.83 5.91 l-0.46 0.67 -0.51 0.14 c-0.28 0.08 -0.56 0.16 -0.62 0.17 l-0.11 0.03 -0.09 0.51 -0.09 0.51 0.24 0.24 c0.13 0.13 0.30 0.33 0.37 0.43 0.07 0.10 0.14 0.18 0.15 0.17 0.03 -0.03 -0.15 -0.28 -0.38 -0.51 -0.16 -0.17 -0.22 -0.25 -0.22 -0.32 0 -0.05 0.12 -0.31 0.26 -0.58 l0.26 -0.49 0.47 -0.12 c1.46 -0.38 2.99 -0.91 4.48 -1.54 0.28 -0.12 0.68 -0.29 0.88 -0.37 0.53 -0.22 2.11 -1.02 2.73 -1.37 4.53 -2.60 8.40 -6.38 11 -10.74 0.35 -0.59 1.08 -1.99 1.08 -2.08 0 -0.05 -0.06 -0.05 -0.56 -0.03 -2.07 0.07 -4.70 0.68 -7.14 1.64 -0.86 0.34 -1.30 0.53 -2.16 0.95 -0.41 0.20 -0.78 0.36 -0.83 0.36 -0.07 0 -0.08 -0.01 -0.08 -0.12 0 -0.09 0.05 -0.20 0.23 -0.46 0.13 -0.19 0.30 -0.47 0.40 -0.62 0.09 -0.16 0.26 -0.43 0.38 -0.62 0.79 -1.20 1.36 -2.67 1.54 -3.97 0.03 -0.20 0.05 -0.48 0.04 -0.62 l-0.01 -0.25 -0.35 0.08 c-1.30 0.29 -3.38 1.17 -4.97 2.10 -2.65 1.55 -4.96 3.55 -7.06 6.10 -0.80 0.98 -1.87 2.49 -2.52 3.59 -0.16 0.28 -0.32 0.53 -0.34 0.57 -0.28 0.46 -1.12 2.09 -1.40 2.71 -0.09 0.19 -0.10 0.21 -0.21 0.21 -0.09 0 -0.11 -0.01 -0.13 -0.09 -0.12 -0.52 -0.18 -0.71 -0.22 -0.71 -0.02 0 -0.32 -0.11 -0.67 -0.25 -0.65 -0.26 -1.26 -0.45 -1.71 -0.52 l-0.26 -0.04 0 -0.13 c0 -0.14 0.05 -0.22 0.65 -1.02 0.48 -0.64 0.62 -0.83 0.60 -0.83 -0.04 0 -0.35 0.15 -0.55 0.27 -0.13 0.08 -0.27 0.13 -0.33 0.13 -0.09 0 -0.10 -0.01 -0.10 -0.11 0 -0.27 0.96 -1.69 1.93 -2.86 0.88 -1.05 2.03 -2.26 2.98 -3.13 0.31 -0.28 0.60 -0.54 0.63 -0.58 0.06 -0.05 0.02 -0.05 -0.20 0.03 -1.38 0.51 -3.60 1.58 -5.02 2.42 -0.89 0.53 -1.77 1.15 -2.27 1.62 -0.20 0.19 -0.28 0.24 -0.36 0.24 -0.09 0 -0.10 -0.01 -0.10 -0.10 0 -0.12 0.19 -0.51 0.46 -0.95 0.37 -0.60 0.67 -0.98 1.17 -1.50 0.45 -0.46 0.76 -0.72 1.21 -1.01 l0.36 -0.23 -0.53 -0.07 c-1.43 -0.19 -2.50 -0.26 -3.41 -0.20 -1.82 0.11 -3.19 0.51 -4.35 1.27 -0.48 0.31 -1.15 0.97 -1.45 1.43 -0.48 0.72 -0.77 1.52 -0.85 2.31 l-0.02 0.22 0.18 0.05 c0.10 0.03 0.30 0.07 0.44 0.09 0.72 0.11 1.53 -0.36 1.93 -1.12 0.08 -0.16 0.14 -0.29 0.13 -0.29 -0.02 0 -0.11 0.03 -0.22 0.07 -0.11 0.04 -0.24 0.07 -0.29 0.07 -0.09 0 -0.09 -0.01 -0.09 -0.12 0 -0.09 0.05 -0.21 0.16 -0.42 0.84 -1.50 2.26 -2.40 4.29 -2.72 0.45 -0.07 1.19 -0.13 1.63 -0.13 l0.29 0 0 0.12 c0 0.10 -0.05 0.17 -0.35 0.52 -1.69 1.97 -2.88 4.27 -3.41 6.60 l-0.13 0.56 -0.09 0 c-0.06 0 -0.16 -0.05 -0.28 -0.15 -0.11 -0.08 -0.27 -0.19 -0.37 -0.25 -0.23 -0.13 -0.63 -0.28 -0.63 -0.24 0 0.02 0.05 0.14 0.11 0.27 0.18 0.38 0.22 0.65 0.24 1.42 l0.02 0.67 -0.40 0.41 c-1.87 1.93 -2.95 4.28 -3.21 6.97 -0.20 2.03 0.30 4.79 1.16 6.43 l0.19 0.36 0.02 -0.26 c0.01 -0.14 0.04 -0.43 0.06 -0.64z m9.91 0.27 c0.64 -0.40 0.66 -0.42 0.68 -0.54 0.02 -0.13 0.02 -0.13 0.18 -0.13 0.22 0 1.71 -0.12 2.75 -0.22 2.74 -0.26 4.72 -0.59 5.93 -0.97 0.32 -0.10 1.27 -0.54 1.24 -0.57 -0.01 -0.01 -0.84 -0.14 -0.91 -0.14 -0.03 0 -0.04 -0.05 -0.04 -0.12 0 -0.11 0.01 -0.12 0.33 -0.28 1.08 -0.54 1.64 -0.95 1.99 -1.44 l0.11 -0.15 -0.19 0.04 c-0.47 0.11 -0.83 0.15 -1.51 0.17 l-0.72 0.02 -0.29 -0.33 c-1.23 -1.41 -2.69 -2.32 -4.03 -2.52 -0.45 -0.07 -0.51 -0.07 -1.07 0.01 -0.71 0.10 -0.70 0.09 -0.20 0.31 1.52 0.69 2.58 1.34 3.32 2.04 0.41 0.39 0.56 0.60 0.56 0.77 l0 0.13 -0.26 0.12 c-1.05 0.48 -2.75 0.84 -4.68 1 -0.66 0.06 -2.03 0.12 -2.60 0.12 l-0.35 0 -0.10 -0.16 c-0.13 -0.20 -0.46 -0.56 -0.63 -0.67 -0.08 -0.05 -0.20 -0.12 -0.28 -0.15 l-0.14 -0.06 -0.38 0.34 -0.38 0.34 0.02 0.19 0.02 0.19 -0.24 0.26 c-0.29 0.32 -0.44 0.59 -0.44 0.82 0 0.35 0.30 1.04 0.73 1.70 l0.22 0.34 0.23 0.04 c0.27 0.04 0.16 0.09 1.12 -0.52z m-5.19 -0.53 c0.25 -0.17 0.49 -0.41 0.70 -0.70 0.20 -0.27 0.35 -0.53 0.31 -0.55 -0.04 -0.02 -0.23 0.10 -0.45 0.28 -0.25 0.21 -0.94 1.07 -0.89 1.12 0.04 0.04 0.10 0.02 0.33 -0.14z m11.36 -3.17 c0.23 -0.06 0.42 -0.12 0.42 -0.14 0 -0.13 -0.32 -1.10 -0.49 -1.47 l-0.09 -0.20 -0.59 -0.28 c-0.62 -0.30 -1.23 -0.57 -1.27 -0.57 -0.04 0 -0.10 0.16 -0.12 0.33 -0.08 0.65 0.56 1.59 1.44 2.12 0.17 0.10 0.18 0.11 0.17 0.23 -0.01 0.10 0 0.12 0.04 0.11 0.03 -0.01 0.24 -0.06 0.48 -0.12z m1.01 -0.71 c-0.11 -0.33 -0.21 -0.58 -0.24 -0.55 -0.01 0.01 0.15 0.54 0.27 0.89 0.01 0.02 0.03 0.04 0.05 0.03 0.02 -0.01 -0.02 -0.17 -0.08 -0.36z m-2.94 -3.08 c0.13 -0.04 0.29 -0.09 0.37 -0.12 l0.13 -0.06 -0.21 -0.19 c-0.32 -0.30 -0.85 -0.55 -1.42 -0.67 -0.33 -0.07 -1.05 -0.05 -1.41 0.04 -0.17 0.04 -0.32 0.09 -0.33 0.10 -0.03 0.05 0.40 0.45 0.64 0.59 0.26 0.15 0.72 0.32 1.02 0.37 0.27 0.05 0.94 0.02 1.21 -0.06z m2.30 -0.51 c0.04 0.04 0.05 -0.04 0.05 -0.63 0 -0.56 -0.01 -0.67 -0.05 -0.67 -0.03 0 -0.06 0.01 -0.07 0.03 -0.01 0.02 -0.08 0.05 -0.16 0.07 -0.08 0.02 -0.20 0.05 -0.26 0.07 -0.11 0.03 -0.14 0.06 -0.28 0.31 l-0.15 0.29 0.13 0.16 c0.17 0.21 0.38 0.52 0.48 0.73 0.06 0.12 0.11 0.18 0.16 0.18 0.07 0.01 0.08 0 0.09 -0.28 0.01 -0.26 0.02 -0.29 0.06 -0.26z m-12.57 0.29 c0.59 -0.15 1.05 -0.37 1.55 -0.74 0.44 -0.33 0.98 -0.92 1.20 -1.33 l0.08 -0.13 -0.11 0.13 c-0.34 0.42 -0.84 0.82 -1.02 0.82 -0.11 0 -0.11 -0.01 -0.11 -0.12 0 -0.08 0.03 -0.16 0.09 -0.24 0.25 -0.32 0.44 -0.78 0.44 -1.08 0 -0.19 -0.10 -0.56 -0.18 -0.67 -0.05 -0.06 -0.06 -0.06 -0.32 0.10 -0.34 0.19 -0.56 0.35 -0.91 0.64 -0.26 0.21 -0.27 0.23 -0.24 0.32 0.02 0.05 0.02 0.23 0.02 0.40 -0.01 0.27 -0.03 0.34 -0.14 0.57 -0.07 0.14 -0.21 0.38 -0.31 0.52 -0.17 0.24 -0.20 0.26 -0.30 0.26 l-0.12 0 0.02 -0.16 c0.06 -0.42 0.06 -0.54 0.02 -0.66 -0.02 -0.07 -0.05 -0.12 -0.07 -0.12 -0.09 0 -1.08 1.43 -1.02 1.49 0.01 0.01 0.13 0.04 0.26 0.07 0.32 0.06 0.77 0.03 1.17 -0.07z m1.96 -8.16 c0.12 -0.21 0.35 -0.57 0.50 -0.81 l0.29 -0.43 -0.31 -0.02 c-0.43 -0.03 -0.87 -0.18 -0.95 -0.33 -0.02 -0.04 -0.03 -0.22 -0.04 -0.41 0 -0.42 -0.02 -0.38 -0.16 0.30 -0.12 0.59 -0.19 1.17 -0.22 1.82 l-0.02 0.48 0.35 -0.11 0.35 -0.11 0.22 -0.38z m1.67 -2.40 c0.76 -0.95 1.60 -1.87 2.64 -2.91 0.72 -0.72 0.73 -0.73 0.45 -0.54 -2.02 1.40 -3.12 2.47 -3.40 3.27 -0.04 0.10 -0.07 0.22 -0.07 0.27 0 0.08 0.05 0.25 0.08 0.25 0.01 0 0.14 -0.15 0.29 -0.34z"/>
  <path d="M27.37 34.27 l0 -1.77 0.55 0 0.55 0 -0.01 1.76 -0.01 1.76 -0.54 0.01 -0.54 0.01 0 -1.77z"/>
  <path d="M27.37 24.22 l0 -1.82 0.54 0.01 0.54 0.01 0.01 1.81 0.01 1.81 -0.55 0 -0.55 0 0 -1.82z"/>
  <path d="M11.37 33.72 c-0.02 -0.12 -0.04 -0.28 -0.04 -0.37 0 -0.15 0.01 -0.17 0.21 -0.35 0.77 -0.70 1.72 -1.74 2.16 -2.35 0.17 -0.24 0.19 -0.26 0.30 -0.26 0.11 0 0.14 0.02 0.31 0.23 0.23 0.28 0.73 0.77 1.03 1 0.19 0.15 0.22 0.19 0.22 0.29 0 0.11 -0 0.11 -0.24 0.17 -1.11 0.27 -2.40 0.89 -3.40 1.65 -0.21 0.16 -0.28 0.20 -0.39 0.20 l-0.13 0 -0.04 -0.21z m0.78 -0.66 c0.73 -0.49 1.77 -0.99 2.48 -1.18 0.11 -0.03 0.21 -0.06 0.21 -0.07 0 -0 -0.20 -0.21 -0.45 -0.46 -0.28 -0.29 -0.45 -0.44 -0.46 -0.41 -0.06 0.14 -0.80 1 -1.41 1.62 -0.38 0.39 -0.68 0.70 -0.65 0.69 0.03 -0.02 0.16 -0.10 0.28 -0.18z"/>
  <path d="M15.93 21.15 l-0.29 -0.10 0 -0.93 0 -0.93 0.28 -0.28 c0.25 -0.24 0.29 -0.27 0.40 -0.27 l0.12 0 0 0.74 c0 0.41 0.01 1 0.02 1.32 l0.02 0.57 -0.13 -0 c-0.07 -0 -0.26 -0.05 -0.42 -0.11z m0.11 -1.01 c0 -0.66 -0.02 -0.83 -0.07 -0.79 -0.02 0.01 -0.03 0.34 -0.03 0.73 0 0.61 0.01 0.71 0.05 0.71 0.04 0 0.05 -0.10 0.05 -0.66z"/>
  <path d="M13.33 21.14 c0 -0.05 0.04 -0.27 0.08 -0.48 0.10 -0.46 0.17 -1.03 0.20 -1.59 l0.02 -0.41 0.11 0 c0.10 0 0.11 0.01 0.27 0.41 0.09 0.22 0.29 0.70 0.44 1.05 0.15 0.35 0.28 0.69 0.28 0.74 0 0.09 -0.01 0.10 -0.16 0.12 -0.29 0.04 -0.51 0.09 -0.75 0.17 -0.13 0.04 -0.29 0.08 -0.36 0.08 -0.12 0 -0.13 -0.01 -0.13 -0.09z m0.64 -0.43 c0.11 -0.02 0.20 -0.05 0.21 -0.06 0.01 -0.02 -0.30 -0.73 -0.32 -0.73 -0.01 0 -0.05 0.19 -0.08 0.42 -0.04 0.26 -0.05 0.42 -0.03 0.42 0.02 -0 0.12 -0.02 0.23 -0.05z"/>
  <path d="M11.08 30.76 c-0.10 -0.02 -0.21 -0.07 -0.24 -0.11 -0.11 -0.11 -0.49 -0.76 -0.60 -1.04 -0.21 -0.51 -0.25 -0.98 -0.10 -1.27 0.04 -0.08 0.19 -0.26 0.32 -0.40 l0.25 -0.26 0 -0.22 0 -0.22 0.26 -0.24 c0.25 -0.22 0.27 -0.24 0.42 -0.24 0.34 0 0.69 0.31 1.10 0.99 0.03 0.05 0.10 0.05 1.08 0.02 2.52 -0.09 4.27 -0.35 5.75 -0.86 0.40 -0.14 1.02 -0.42 1.16 -0.52 0.06 -0.05 0.06 -0.05 -0.04 -0.19 -0.23 -0.34 -0.77 -0.87 -1.24 -1.23 -0.56 -0.43 -1.57 -1.03 -2.25 -1.33 -0.30 -0.14 -0.32 -0.15 -0.32 -0.25 0 -0.10 0.01 -0.11 0.13 -0.13 0.23 -0.04 0.92 -0.02 1.23 0.03 0.84 0.14 1.74 0.58 2.64 1.31 0.34 0.27 1.05 0.99 1.28 1.29 0.12 0.15 0.20 0.22 0.26 0.24 0.17 0.04 0.83 0.02 1.19 -0.03 0.19 -0.03 0.44 -0.06 0.56 -0.07 l0.21 -0.02 0 0.12 c0 0.09 -0.03 0.14 -0.13 0.23 -0.28 0.26 -0.92 0.63 -1.87 1.11 -0.34 0.17 -0.61 0.31 -0.60 0.32 0.01 0 0.23 0.04 0.48 0.08 l0.47 0.07 0.01 0.12 0.01 0.12 -0.31 0.12 c-1.22 0.47 -3.86 0.88 -7.49 1.17 -0.56 0.05 -1.21 0.09 -1.44 0.11 -0.47 0.03 -0.46 0.02 -0.46 0.28 -0 0.11 -0.01 0.12 -0.66 0.53 -0.71 0.45 -0.75 0.46 -1.06 0.39z m0.94 -0.96 l0.31 -0.24 0 -0.27 0 -0.28 0.12 0 c0.07 0 0.20 0.02 0.29 0.05 0.10 0.03 0.32 0.06 0.50 0.08 0.42 0.04 1.33 0.04 1.33 0 0 -0.02 -0.05 -0.03 -0.11 -0.03 -0.17 0 -0.81 -0.12 -1.14 -0.22 -0.50 -0.15 -1.03 -0.43 -1.25 -0.66 -0.05 -0.05 -0.09 -0.09 -0.11 -0.09 -0.01 0 -0.03 0.09 -0.03 0.19 0 0.22 -0.04 0.27 -0.18 0.27 -0.13 0 -0.32 0.09 -0.38 0.19 -0.05 0.07 -0.05 0.10 0 0.34 0.07 0.33 0.26 0.91 0.30 0.91 0.01 0 0.17 -0.11 0.34 -0.24z"/>
  <path d="M7.40 14.64 c0 -0.27 0.05 -0.87 0.10 -1.30 l0.04 -0.31 0.13 0 c0.07 0 0.19 0.03 0.25 0.06 0.12 0.06 0.47 0.17 0.68 0.22 0.16 0.04 0.12 0.17 -0.16 0.61 -0.14 0.22 -0.31 0.49 -0.37 0.62 -0.12 0.21 -0.13 0.22 -0.31 0.27 -0.10 0.03 -0.23 0.05 -0.28 0.05 -0.09 0 -0.09 -0 -0.09 -0.22z m0.55 -0.73 l0.18 -0.29 -0.15 -0.06 c-0.09 -0.03 -0.16 -0.05 -0.17 -0.05 -0.01 0.01 -0.08 0.54 -0.08 0.65 0 0.10 0.01 0.10 0.22 -0.25z"/>
 </g>
 <g fill="#ffffff">
  <path d="M4.78 44.99 c0.88 -0.86 3.39 -3.24 3.53 -3.36 0.07 -0.06 0.15 -0.20 0.23 -0.39 l0.13 -0.30 -0.09 -0.35 c-0.39 -1.56 0.11 -3.46 1.36 -5.09 0.13 -0.17 0.26 -0.34 0.28 -0.37 0.04 -0.05 -0.07 -0.28 -0.85 -1.80 -0.49 -0.96 -0.93 -1.81 -0.97 -1.88 l-0.07 -0.14 -0.29 0.07 c-0.28 0.06 -0.30 0.06 -0.49 0.01 -0.29 -0.08 -0.77 -0.31 -1.01 -0.50 -0.39 -0.30 -0.63 -0.72 -0.60 -1.05 0.02 -0.17 0.20 -0.51 0.45 -0.85 0.35 -0.46 0.94 -0.96 1.44 -1.20 l0.18 -0.09 0.30 0.17 c0.29 0.16 0.31 0.17 0.55 0.17 0.32 0 0.48 0.06 0.63 0.23 0.11 0.13 0.11 0.13 0.12 0.48 0 0.25 0.03 0.41 0.08 0.57 l0.07 0.23 -0.09 0.25 -0.09 0.25 0.29 0.27 c0.16 0.15 0.42 0.39 0.56 0.53 0.15 0.14 0.35 0.33 0.45 0.43 l0.18 0.16 0.13 -0.10 c0.07 -0.05 0.16 -0.10 0.20 -0.10 0.04 0 0.27 -0.13 0.52 -0.29 0.25 -0.16 0.51 -0.32 0.58 -0.37 0.45 -0.29 -0.54 0.63 -1.16 1.07 -0.15 0.10 -0.28 0.18 -0.31 0.18 -0.02 -0.01 -0.45 -0.39 -0.94 -0.86 l-0.90 -0.85 0.12 -0.33 c0.11 -0.32 0.12 -0.35 0.10 -0.65 -0.02 -0.38 -0.06 -0.54 -0.17 -0.66 -0.07 -0.09 -0.09 -0.09 -0.39 -0.10 -0.32 -0 -0.32 -0 -0.59 -0.16 l-0.27 -0.16 -0.21 0.12 c-0.41 0.25 -0.79 0.57 -1.07 0.92 -0.19 0.24 -0.46 0.70 -0.46 0.80 0 0.15 0.16 0.42 0.37 0.61 0.24 0.22 0.52 0.39 0.86 0.50 l0.25 0.08 0.38 -0.08 c0.21 -0.05 0.39 -0.07 0.39 -0.06 0 0.01 0.23 0.45 0.49 0.96 0.26 0.51 0.60 1.18 0.76 1.48 0.24 0.47 0.27 0.53 0.28 0.43 0.01 -0.06 0.02 -0.25 0.03 -0.42 l0.02 -0.31 0.62 0.61 c0.34 0.34 0.61 0.58 0.59 0.55 -0.08 -0.22 -0.15 -0.49 -0.18 -0.68 -0.05 -0.34 -0.01 -0.44 0.35 -0.76 0.83 -0.74 1.79 -1.81 2.26 -2.54 0.12 -0.19 0.24 -0.34 0.25 -0.33 0.02 0.01 0.14 0.16 0.28 0.35 0.44 0.58 1 1.10 1.74 1.61 0.17 0.11 0.27 0.20 0.25 0.21 -0.03 0.01 -0.17 0.03 -0.33 0.05 -0.38 0.05 -1.08 0.23 -1.48 0.38 -0.83 0.30 -1.94 0.94 -2.65 1.51 -1.37 1.10 -2.43 2.63 -2.81 4.04 -0.24 0.91 -0.25 1.86 -0.02 2.61 l0.07 0.22 -0.17 0.39 -0.16 0.39 -1.26 1.20 c-0.70 0.66 -1.36 1.30 -1.48 1.42 l-0.22 0.22 0.25 -0.14 c0.14 -0.07 0.98 -0.53 1.87 -1.01 1.41 -0.77 1.65 -0.89 1.91 -0.95 l0.29 -0.07 0.32 0.21 c1.79 1.20 4.75 0.86 7.19 -0.81 0.37 -0.25 0.69 -0.50 1.03 -0.80 l0.24 -0.21 0 0.23 0 0.23 -0.27 0.23 c-2.66 2.22 -6.17 2.82 -8.34 1.43 l-0.23 -0.15 -0.21 0.05 c-0.14 0.04 -0.76 0.35 -2.04 1.05 -1.59 0.86 -2.37 1.26 -3.45 1.76 l-0.25 0.11 0.73 -0.71z m6.15 -10.63 c0 -0.01 -0.12 -0.14 -0.27 -0.28 l-0.27 -0.27 0 0.57 0 0.57 0.27 -0.28 c0.14 -0.16 0.26 -0.29 0.27 -0.30z m0.89 -0.73 c1.07 -0.81 2.17 -1.34 3.54 -1.69 l0.12 -0.03 -0.23 -0.18 c-0.31 -0.24 -0.80 -0.72 -1.03 -1.01 -0.10 -0.12 -0.20 -0.23 -0.21 -0.23 -0.01 0 -0.10 0.12 -0.20 0.26 -0.44 0.62 -1.24 1.51 -1.95 2.15 -0.20 0.19 -0.38 0.36 -0.40 0.39 -0.03 0.07 0.04 0.53 0.08 0.53 0.02 0 0.15 -0.09 0.29 -0.19z"/>
  <path d="M10.27 41.67 c-0.12 -0.25 -0.16 -0.29 -0.22 -0.24 -0.04 0.04 -0.06 0.03 -0.13 -0.04 -0.12 -0.13 -0.30 -0.26 -0.44 -0.31 -0.07 -0.03 -0.13 -0.06 -0.12 -0.09 0 -0.02 -0.02 -0.06 -0.06 -0.09 -0.04 -0.03 -0.07 -0.11 -0.09 -0.17 l-0.02 -0.11 0.17 0.07 c0.48 0.18 0.79 0.50 0.96 0.98 0.07 0.19 0.04 0.19 -0.05 -0z"/>
  <path d="M20.62 41.81 c-0.01 -0.01 -0.02 -1.16 -0.02 -2.55 0 -2.27 0.01 -2.52 0.05 -2.54 0.03 -0.01 0.25 -0.02 0.50 -0.02 l0.45 0 0 -3.87 0 -3.86 0.17 -0.05 c0.09 -0.03 0.23 -0.05 0.30 -0.05 l0.13 0 -0.01 4.24 -0.01 4.24 -0.49 0.01 -0.49 0.01 0 1.90 0 1.90 5.26 0 5.26 0 0.91 -0.91 0.91 -0.91 0 -4.08 0 -4.08 -0.90 -0.90 c-0.78 -0.78 -0.90 -0.91 -0.90 -1 0 -0.09 0.12 -0.22 0.90 -1 l0.90 -0.90 0 -4.12 0 -4.12 -0.93 -0.93 -0.92 -0.92 -2.13 0 c-1.57 0 -2.13 -0.01 -2.12 -0.04 0.01 -0.02 0.22 -0.17 0.47 -0.33 l0.46 -0.30 1.87 0 1.87 -0 1.06 1.08 1.06 1.08 0 4.48 0 4.48 -0.77 0.77 -0.77 0.77 0.77 0.77 0.77 0.77 0 4.45 0 4.45 -1.06 1.06 -1.06 1.06 -5.74 0 c-3.15 0 -5.75 -0.01 -5.76 -0.02z"/>
  <path d="M9.63 38.69 c0 -0.06 0.23 -0.75 0.34 -1.03 0.67 -1.68 1.88 -3.09 3.58 -4.16 0.79 -0.50 2.03 -1.05 2.92 -1.30 l0.39 -0.11 -0.25 -0.20 c-0.32 -0.26 -0.71 -0.65 -0.90 -0.91 -0.14 -0.19 -0.33 -0.60 -0.30 -0.63 0.01 -0.01 0.11 0.02 0.23 0.05 l0.21 0.07 0.09 0.23 c0.24 0.60 0.69 1.10 1.18 1.33 l0.19 0.08 -0.38 0.16 c-1.71 0.71 -3.24 1.83 -4.14 3.04 -0.48 0.64 -0.75 1.14 -0.98 1.79 -0.09 0.26 -0.10 0.27 -0.18 0.25 -0.05 -0.01 -0.17 -0.02 -0.28 -0.02 -0.45 0.01 -1.03 0.45 -1.57 1.17 -0.09 0.12 -0.16 0.20 -0.16 0.19z"/>
  <path d="M25.99 37.34 c-0.01 -0.01 -0.02 -1.41 -0.02 -3.10 l0 -3.08 1.88 0 1.88 0 0 3.10 0 3.10 -1.86 0 c-1.02 0 -1.87 -0.01 -1.88 -0.02z m3.14 -3.09 l0 -2.45 -1.23 0 -1.23 0 0 2.45 0 2.45 1.23 0 1.23 0 0 -2.45z"/>
  <path d="M19.60 32.78 c-0.10 -0.07 -0.31 -0.18 -0.46 -0.25 -0.15 -0.07 -0.28 -0.14 -0.28 -0.15 0 -0.01 0.05 -0.07 0.10 -0.14 0.15 -0.18 0.42 -0.77 0.52 -1.12 0.11 -0.38 0.21 -0.96 0.24 -1.44 0.02 -0.21 0.04 -0.37 0.06 -0.37 0.02 0 0.04 0.33 0.04 0.91 0.01 0.90 0.01 0.91 -0.08 1.17 -0.05 0.15 -0.15 0.40 -0.23 0.57 -0.08 0.16 -0.14 0.30 -0.13 0.31 0.01 0.01 0.11 0.07 0.23 0.14 l0.21 0.12 0.01 0.19 c0.01 0.10 -0 0.19 -0.02 0.19 -0.01 0 -0.11 -0.06 -0.21 -0.12z"/>
  <path d="M2.26 31.28 c-0.03 -0.05 -0.15 -0.28 -0.27 -0.51 -0.36 -0.67 -0.59 -1.30 -0.83 -2.27 -0.44 -1.73 -0.53 -3.57 -0.26 -5.23 0.37 -2.31 1.43 -4.43 3.11 -6.16 l0.40 -0.41 -0.02 -0.58 c-0.02 -0.72 -0.07 -0.95 -0.32 -1.51 -0.11 -0.24 -0.19 -0.43 -0.19 -0.44 0.02 -0.02 0.82 0.30 0.99 0.40 0.10 0.05 0.27 0.16 0.37 0.24 l0.19 0.14 0.13 -0.55 c0.53 -2.32 1.72 -4.63 3.41 -6.60 0.19 -0.23 0.34 -0.42 0.33 -0.43 -0.04 -0.03 -1.28 0.06 -1.71 0.13 -2.04 0.33 -3.44 1.22 -4.28 2.72 -0.09 0.16 -0.16 0.30 -0.16 0.31 0 0.01 0.17 -0.03 0.37 -0.09 0.20 -0.06 0.38 -0.11 0.39 -0.10 0.01 0.01 -0.09 0.21 -0.21 0.45 -0.37 0.69 -0.79 1.05 -1.40 1.21 -0.39 0.10 -0.76 0.09 -1.24 -0.05 l-0.19 -0.05 0.02 -0.31 c0.05 -0.81 0.35 -1.65 0.86 -2.42 0.30 -0.45 0.97 -1.11 1.45 -1.43 1.67 -1.10 4.05 -1.51 6.98 -1.19 0.54 0.06 1.71 0.22 1.73 0.23 0.01 0.01 -0.02 0.03 -0.07 0.06 -0.88 0.55 -1.19 0.79 -1.73 1.35 -0.63 0.65 -1.12 1.32 -1.50 2.08 l-0.14 0.28 0.26 -0.24 c1.15 -1.07 3.40 -2.38 6.18 -3.59 0.52 -0.23 2.07 -0.82 2.07 -0.80 0 0.01 -0.39 0.37 -0.86 0.80 -2.25 2.05 -4.25 4.38 -5.13 5.97 -0.12 0.22 -0.12 0.23 -0.05 0.18 0.30 -0.19 1.04 -0.53 1.16 -0.53 0.04 0 -0.22 0.37 -0.84 1.20 -0.43 0.58 -0.65 0.89 -0.65 0.92 0 0.02 0.12 0.05 0.26 0.07 0.45 0.07 1.05 0.26 1.71 0.52 0.35 0.14 0.65 0.25 0.67 0.25 0.04 0 0.08 0.13 0.17 0.50 0.04 0.15 0.07 0.28 0.08 0.29 0.01 0.01 0.05 -0.08 0.11 -0.20 0.28 -0.62 1.12 -2.25 1.40 -2.71 0.02 -0.04 0.17 -0.29 0.34 -0.57 1.34 -2.27 3.24 -4.63 5.07 -6.32 1.92 -1.77 3.69 -3.01 5.88 -4.11 1.25 -0.62 2.67 -1.16 3.62 -1.37 0.22 -0.05 0.43 -0.10 0.48 -0.10 0.07 -0.02 0.07 -0.02 0.07 0.37 0 1.36 -0.63 3.22 -1.59 4.70 -0.12 0.18 -0.29 0.46 -0.38 0.62 -0.09 0.16 -0.27 0.44 -0.40 0.62 -0.12 0.19 -0.23 0.35 -0.23 0.35 0 0.01 0.24 -0.11 0.54 -0.26 2.37 -1.19 4.89 -2.03 7.27 -2.43 0.95 -0.16 1.50 -0.22 2.33 -0.24 l0.72 -0.02 -0.06 0.16 c-0.10 0.28 -0.78 1.61 -1.12 2.17 -2.60 4.36 -6.48 8.14 -11 10.74 -0.62 0.36 -2.20 1.15 -2.73 1.37 -0.20 0.08 -0.60 0.25 -0.88 0.37 -1.50 0.63 -3.02 1.16 -4.48 1.54 l-0.47 0.12 -0.25 0.49 -0.25 0.49 0.22 0.24 c0.20 0.21 0.56 0.73 0.53 0.76 -0.01 0 -0.10 -0 -0.20 -0.02 -0.18 -0.03 -0.20 -0.04 -0.32 -0.22 -0.07 -0.10 -0.24 -0.30 -0.38 -0.44 l-0.26 -0.26 0.33 -1.86 c0.18 -1.03 0.34 -1.90 0.35 -1.94 0.02 -0.09 0.75 -1.05 1.43 -1.91 3.36 -4.18 6.73 -7.08 10.20 -8.77 1.61 -0.78 3.15 -1.25 4.70 -1.43 0.47 -0.05 1.55 -0.05 1.92 0 0.16 0.02 0.29 0.05 0.29 0.05 0.01 0.01 -0.10 0.23 -0.24 0.51 -1.88 3.70 -5 7.15 -8.95 9.89 -0.96 0.67 -2.22 1.44 -3.06 1.87 -0.17 0.09 -0.30 0.16 -0.30 0.17 0.02 0.02 1.12 -0.49 1.62 -0.76 3.80 -2 6.96 -4.61 9.65 -7.96 0.80 -1 1.60 -2.14 2.25 -3.23 0.32 -0.53 0.93 -1.69 0.93 -1.76 0 -0.06 -0.41 -0.05 -1.05 0.01 -4.37 0.42 -9.19 2.41 -13.28 5.49 -2.40 1.81 -4.49 3.85 -6.51 6.36 -0.26 0.32 -0.49 0.60 -0.51 0.63 -0.12 0.11 -0.13 0.39 -0.13 2.42 0 1.10 -0.01 1.99 -0.02 1.98 -0.21 -0.12 -0.65 -0.30 -0.85 -0.36 -0.15 -0.04 -0.30 -0.09 -0.33 -0.10 -0.06 -0.02 -0.10 -0.21 -0.38 -1.83 l-0.32 -1.80 0.20 -0.49 c2.14 -5.42 4.84 -9.48 7.90 -11.93 1.67 -1.34 3.49 -2.19 5.15 -2.43 0.38 -0.05 0.87 -0.07 0.87 -0.02 0 0.01 0.02 0.15 0.03 0.30 0.08 0.59 -0.11 1.57 -0.48 2.52 -0.08 0.20 -0.16 0.40 -0.17 0.44 -0.07 0.19 0.56 -0.83 0.79 -1.27 0.56 -1.08 0.94 -2.33 1.01 -3.33 l0.02 -0.29 -0.11 0.02 c-0.29 0.06 -1.16 0.33 -1.60 0.49 -2.21 0.82 -4.39 2.09 -6.40 3.70 -1.66 1.33 -3.29 3.04 -4.65 4.86 -0.49 0.66 -1.30 1.86 -1.75 2.61 -0.76 1.26 -2.03 3.78 -2.03 4.04 0 0.19 0.15 0.79 0.31 1.30 0.22 0.67 0.57 1.54 0.96 2.39 0.16 0.36 0.30 0.66 0.30 0.67 0 0.01 -0.19 0.02 -0.42 0.03 -0.61 0.03 -1.16 0.19 -1.60 0.47 -0.08 0.05 -0.15 0.09 -0.16 0.08 -0.01 -0.01 0.02 -0.14 0.07 -0.29 0.11 -0.37 0.23 -0.99 0.31 -1.50 0.04 -0.32 0.06 -0.64 0.06 -1.35 0 -1.02 -0.04 -1.41 -0.22 -2.30 -0.16 -0.82 -0.07 -0.70 -0.72 -0.96 -0.87 -0.35 -1.53 -0.52 -2.19 -0.58 -0.23 -0.02 -0.27 -0.02 -0.31 0.04 -0.04 0.06 -0.04 0.05 -0.04 -0.07 0 -0.10 0.04 -0.19 0.19 -0.41 0.15 -0.23 0.17 -0.27 0.10 -0.22 -0.10 0.07 -0.28 0.08 -0.23 0.02 0.02 -0.02 0.06 -0.13 0.09 -0.23 0.26 -0.82 0.88 -1.89 1.72 -3.02 0.76 -1.01 1.54 -1.89 2.76 -3.13 0.51 -0.51 0.92 -0.92 0.91 -0.92 -0.04 0 -1.43 0.64 -2.08 0.96 -3.07 1.50 -4.87 2.83 -5.46 4.04 -0.11 0.23 -0.13 0.29 -0.14 0.58 -0.01 0.31 -0.01 0.33 0.07 0.40 0.09 0.09 0.39 0.21 0.66 0.26 0.18 0.03 0.60 0.02 0.71 -0.03 0.04 -0.01 -0.01 0.08 -0.14 0.26 -0.28 0.40 -0.55 0.82 -0.81 1.26 l-0.22 0.38 -0.38 0.13 c-0.21 0.07 -0.41 0.14 -0.45 0.15 -0.06 0.02 -0.06 0.01 -0.04 -0.59 0.08 -2.32 0.72 -4.20 2 -5.91 0.35 -0.47 1.12 -1.25 1.51 -1.54 0.15 -0.11 0.27 -0.21 0.27 -0.21 -0.01 0 -0.27 -0.03 -0.58 -0.07 -1.57 -0.18 -2.96 -0.17 -4.16 0.04 -2.48 0.42 -4.16 1.69 -4.80 3.61 -0.10 0.30 -0.22 0.86 -0.22 1.02 0 0.07 0.04 0.08 0.36 0.13 0.45 0.06 0.94 -0.07 1.27 -0.34 0.15 -0.12 0.41 -0.42 0.41 -0.46 0 -0.01 -0.05 -0.01 -0.11 0.01 -0.17 0.05 -0.31 0.04 -0.40 -0.03 l-0.08 -0.06 0.14 -0.33 c0.16 -0.38 0.49 -0.93 0.76 -1.25 1.14 -1.40 3.16 -2.20 5.56 -2.20 0.30 0 0.63 0.01 0.74 0.02 l0.20 0.02 -0.42 0.45 c-1.80 1.96 -3.08 4.22 -3.68 6.55 -0.14 0.55 -0.24 1.05 -0.30 1.48 -0.06 0.45 -0.07 0.50 -0.12 0.50 -0.03 0 -0.07 -0.07 -0.10 -0.18 -0.03 -0.10 -0.11 -0.26 -0.18 -0.36 -0.13 -0.18 -0.52 -0.53 -0.54 -0.47 -0 0.02 0.01 0.10 0.03 0.18 0.02 0.08 0.04 0.49 0.05 0.91 l0.02 0.76 -0.50 0.51 c-0.27 0.28 -0.54 0.58 -0.59 0.67 -0.08 0.15 -0.09 0.15 -0.12 0.09 -0.01 -0.04 -0.04 -0.07 -0.06 -0.05 -0.02 0.01 -0.14 0.16 -0.26 0.33 -1.26 1.68 -1.98 3.56 -2.17 5.66 -0.05 0.55 -0.04 1.71 0.02 2.31 0.11 1.18 0.40 2.43 0.77 3.42 0.12 0.31 0.17 0.35 0.18 0.13 0 -0.05 0.04 -0.20 0.08 -0.33 0.41 -1.15 1.89 -2.11 4.15 -2.67 l0.35 -0.09 0.51 -0.53 c1.18 -1.23 2.25 -1.98 2.98 -2.09 0.21 -0.03 0.25 0.03 0.17 0.29 -0.10 0.33 -0.53 1.13 -0.90 1.66 -0.08 0.12 -0.14 0.22 -0.13 0.23 0.01 0.01 0.15 0 0.31 -0.01 l0.30 -0.02 0.49 -0.49 c0.27 -0.27 0.61 -0.64 0.76 -0.83 l0.27 -0.34 0.02 0.16 c0.08 0.63 0.22 1.05 0.48 1.49 l0.12 0.20 -0.28 -0.13 -0.27 -0.13 -0.12 -0.28 c-0.06 -0.16 -0.12 -0.33 -0.14 -0.39 l-0.02 -0.11 -0.37 0.39 c-0.21 0.22 -0.48 0.48 -0.61 0.59 l-0.24 0.20 -0.59 0.06 c-2.72 0.27 -4.79 0.88 -5.97 1.77 -0.34 0.25 -0.69 0.66 -0.84 0.95 -0.15 0.30 -0.15 0.32 -0.22 1.20 -0.03 0.36 -0.05 0.65 -0.06 0.66 -0.01 0.01 -0.03 -0.03 -0.06 -0.08z m14.08 -11.32 c-0.01 -0.67 -0.02 -1.22 -0.03 -1.22 -0.01 -0.01 -0.14 0.11 -0.29 0.26 l-0.28 0.28 0 0.83 0 0.83 0.29 0.10 c0.16 0.06 0.30 0.11 0.31 0.11 0.01 0 0.01 -0.54 0.01 -1.20z m-2.56 1.08 c0.17 -0.05 0.42 -0.11 0.57 -0.13 0.15 -0.02 0.27 -0.04 0.27 -0.05 0 -0 -0.10 -0.25 -0.23 -0.56 -0.13 -0.30 -0.33 -0.77 -0.44 -1.05 l-0.20 -0.50 -0.02 0.35 c-0.05 0.74 -0.19 1.75 -0.28 1.98 -0.03 0.07 -0.02 0.07 0.33 -0.05z m4.23 -0.49 c0.40 -0.11 0.50 -0.15 0.56 -0.23 0.04 -0.05 0.09 -0.09 0.12 -0.09 0.03 0 0.14 -0.14 0.26 -0.31 0.93 -1.39 2.60 -3.61 3.04 -4.04 0.08 -0.07 0.29 -0.21 0.47 -0.31 0.29 -0.15 0.32 -0.18 0.23 -0.18 -0.10 0 -0.11 -0.01 -0.11 -0.11 0 -0.09 0.07 -0.18 0.42 -0.58 0.23 -0.26 0.83 -0.88 1.34 -1.39 0.92 -0.92 0.92 -0.92 1.27 -1.10 0.35 -0.18 0.35 -0.18 0.34 -0.29 -0.02 -0.13 -0 -0.14 0.71 -0.72 0.82 -0.68 1.17 -0.91 1.88 -1.25 0.22 -0.11 0.24 -0.12 0.24 -0.22 0 -0.10 0.03 -0.12 0.53 -0.44 1.26 -0.80 2.96 -1.67 3.95 -2.01 0.12 -0.04 0.22 -0.09 0.21 -0.09 -0.04 -0.04 -1.42 0.48 -2.12 0.79 -4.83 2.19 -9.53 6.38 -13.50 12.05 -0.53 0.75 -0.50 0.70 -0.40 0.67 0.04 -0.02 0.30 -0.09 0.57 -0.17z m-10.15 -5.90 c0.09 -0.17 0.38 -0.65 0.53 -0.89 l0.21 -0.33 -0.09 -0.02 c-0.24 -0.05 -0.47 -0.13 -0.65 -0.20 -0.10 -0.05 -0.20 -0.08 -0.20 -0.07 -0.02 0.02 -0.12 0.86 -0.14 1.25 l-0.02 0.38 0.18 -0.05 c0.10 -0.03 0.18 -0.06 0.18 -0.06z"/>
  <path d="M11.02 30.95 l-0.23 -0.04 -0.22 -0.34 c-0.48 -0.73 -0.73 -1.34 -0.73 -1.80 0 -0.23 0.01 -0.29 0.10 -0.46 0.05 -0.11 0.20 -0.31 0.33 -0.45 l0.23 -0.25 -0.03 -0.17 c-0.02 -0.10 -0.03 -0.18 -0.03 -0.18 0 -0 0.19 -0.17 0.41 -0.38 l0.41 -0.37 0.14 0.03 c0.24 0.05 0.44 0.17 0.68 0.40 0.13 0.12 0.29 0.32 0.37 0.43 l0.13 0.20 0.25 0 c0.47 0 1.88 -0.07 2.50 -0.12 1.15 -0.10 2.24 -0.27 3.12 -0.48 0.74 -0.19 1.82 -0.58 1.82 -0.67 0 -0.09 -0.43 -0.57 -0.78 -0.87 l-0.20 -0.17 0.07 0.13 c0.06 0.12 0.31 0.88 0.31 0.95 0 0.02 -0.06 0.05 -0.14 0.07 l-0.14 0.05 -0.22 -0.65 c-0.12 -0.36 -0.23 -0.68 -0.25 -0.72 -0.02 -0.05 0.02 -0.03 0.17 0.06 0.25 0.15 0.11 0.03 -0.25 -0.23 -0.60 -0.43 -1.39 -0.86 -2.52 -1.37 -0.31 -0.14 -0.60 -0.27 -0.63 -0.29 -0.05 -0.03 0.04 -0.05 0.50 -0.13 0.81 -0.13 1.18 -0.15 1.65 -0.08 1.37 0.20 2.82 1.11 4.06 2.53 l0.29 0.33 0.62 -0.02 c0.67 -0.02 0.81 -0.04 1.51 -0.19 0.25 -0.06 0.47 -0.10 0.47 -0.09 0.02 0.02 -0.47 0.66 -0.61 0.80 -0.23 0.24 -0.96 0.70 -1.68 1.06 -0.18 0.09 -0.33 0.17 -0.32 0.18 0.01 0.01 1.17 0.18 1.24 0.18 0.15 0 -1.10 0.61 -1.53 0.74 -1.22 0.39 -3.19 0.71 -5.93 0.97 -1.04 0.10 -2.53 0.22 -2.75 0.22 -0.16 0 -0.16 0 -0.19 0.13 -0.03 0.13 -0.05 0.15 -0.80 0.62 -0.83 0.52 -0.78 0.50 -1.20 0.44z m1.12 -0.75 c0.54 -0.34 0.55 -0.35 0.56 -0.47 0 -0.26 -0.01 -0.25 0.46 -0.28 2.43 -0.13 5.93 -0.54 7.46 -0.87 0.84 -0.18 1.82 -0.49 1.75 -0.55 -0.01 -0.01 -0.15 -0.04 -0.31 -0.06 -0.16 -0.02 -0.44 -0.06 -0.63 -0.09 l-0.35 -0.05 0.78 -0.39 c1.15 -0.57 1.85 -0.99 2.08 -1.24 l0.10 -0.11 -0.12 0.02 c-0.52 0.10 -1.57 0.16 -1.85 0.10 -0.07 -0.01 -0.15 -0.09 -0.26 -0.24 -0.23 -0.30 -0.94 -1.01 -1.28 -1.29 -0.90 -0.72 -1.81 -1.17 -2.64 -1.31 -0.31 -0.05 -0.89 -0.06 -1.07 -0.02 -0.09 0.02 -0.07 0.03 0.23 0.17 0.68 0.31 1.69 0.90 2.26 1.34 0.53 0.40 1.09 0.97 1.30 1.32 l0.11 0.19 -0.10 0.08 c-0.16 0.13 -0.74 0.40 -1.20 0.55 -1.50 0.51 -3.26 0.77 -5.85 0.86 -1.09 0.04 -1.15 0.04 -1.18 -0.02 -0.19 -0.30 -0.33 -0.50 -0.49 -0.66 -0.18 -0.19 -0.41 -0.33 -0.52 -0.33 -0.03 0 -0.18 0.11 -0.32 0.24 l-0.27 0.24 0.02 0.19 0.02 0.20 -0.27 0.28 c-0.27 0.29 -0.38 0.45 -0.42 0.65 -0.03 0.16 0.05 0.53 0.18 0.85 0.12 0.28 0.49 0.93 0.60 1.04 0.03 0.04 0.14 0.08 0.24 0.10 0.20 0.04 0.12 0.08 0.97 -0.45z"/>
  <path d="M14.98 29.21 c0.05 -0.01 0.12 -0.01 0.17 0 0.04 0.01 0 0.01 -0.09 0.01 -0.09 0 -0.13 -0.01 -0.07 -0.01z"/>
  <path d="M15.38 29.18 c0.05 -0.01 0.12 -0.01 0.17 0 0.04 0.01 0 0.01 -0.09 0.01 -0.09 0 -0.13 -0.01 -0.07 -0.01z"/>
  <path d="M15.74 29.14 c0.05 -0.01 0.12 -0.01 0.17 0 0.04 0.01 0 0.01 -0.09 0.01 -0.09 0 -0.13 -0.01 -0.07 -0.01z"/>
  <path d="M16.06 29.11 c0.04 -0.01 0.11 -0.01 0.15 0 0.04 0.01 0.01 0.01 -0.08 0.01 -0.08 0 -0.12 -0.01 -0.07 -0.01z"/>
  <path d="M16.41 29.08 c0.05 -0.01 0.12 -0.01 0.17 0 0.04 0.01 0 0.01 -0.09 0.01 -0.09 0 -0.13 -0.01 -0.07 -0.01z"/>
  <path d="M16.73 29.04 c0.04 -0.01 0.10 -0.01 0.13 0 0.03 0.01 -0 0.02 -0.08 0.01 -0.07 0 -0.10 -0.01 -0.06 -0.01z"/>
  <path d="M18.23 30.07 c0 -0.07 0.02 -0.14 0.04 -0.16 0.02 -0.01 0.10 -0.12 0.18 -0.25 0.08 -0.13 0.17 -0.23 0.19 -0.23 0.02 0 0.11 -0.01 0.20 -0.02 0.15 -0.02 0.15 -0.02 0.15 0.08 0 0.12 -0.07 0.21 -0.35 0.50 -0.17 0.17 -0.22 0.21 -0.31 0.21 -0.11 0 -0.11 -0.01 -0.11 -0.13z"/>
  <path d="M12.66 27.29 c-0.04 -0.08 -0.04 -0.08 0.03 -0.01 0.08 0.07 0.09 0.09 0.04 0.09 -0.02 0 -0.05 -0.03 -0.07 -0.07z"/>
  <path d="M25.97 24.23 l0.01 -3.14 1.88 -0.01 1.87 -0.01 0 3.15 0 3.15 -1.88 0 -1.88 0 0.01 -3.14z m3.16 0.01 l0 -2.50 -1.23 0 -1.23 0 0 2.50 0 2.50 1.23 0 1.23 0 0 -2.50z"/>
  <path d="M17.64 26.80 c0.16 -0.16 0.17 -0.17 0.12 -0.21 -0.06 -0.04 -0.05 -0.05 0.04 -0.19 0.15 -0.23 0.22 -0.44 0.19 -0.61 -0.05 -0.34 -0.47 -0.85 -1 -1.21 -0.26 -0.18 -0.28 -0.20 -0.28 -0.30 0 -0.10 0.01 -0.11 0.11 -0.11 0.31 0 1.75 1.03 1.87 1.33 0.10 0.28 0.29 0.99 0.27 1.05 -0.02 0.07 -0.08 0.09 -0.64 0.23 -0.34 0.08 -0.67 0.16 -0.74 0.17 l-0.11 0.02 0.18 -0.17z"/>
  <path d="M21.88 25.24 l-0.28 -0.30 0 -1.60 0 -1.60 -0.50 0 -0.50 0 0 -0.67 0 -0.68 0.30 -0.10 0.30 -0.10 0 0.44 0 0.44 0.49 0.01 0.49 0.01 0.01 2.23 c0 1.22 -0 2.22 -0.02 2.22 -0.02 -0 -0.15 -0.14 -0.30 -0.30z"/>
  <path d="M4.95 22.79 c-0.13 -0.02 -0.27 -0.06 -0.31 -0.07 l-0.07 -0.02 0.11 -0.21 c0.27 -0.52 1.03 -1.56 1.12 -1.55 0.03 0 0.08 0.05 0.12 0.10 0.05 0.07 0.07 0.15 0.08 0.37 0.01 0.15 -0 0.34 -0.02 0.42 -0.02 0.08 -0.03 0.14 -0.03 0.14 0.01 0 0.09 -0.12 0.20 -0.26 0.41 -0.56 0.55 -1.08 0.39 -1.39 l-0.07 -0.13 0.08 -0.07 c0.63 -0.52 0.94 -0.74 1.36 -0.96 l0.25 -0.13 0.08 0.10 c0.21 0.26 0.28 0.87 0.14 1.28 -0.08 0.24 -0.23 0.52 -0.38 0.71 -0.05 0.07 -0.09 0.13 -0.08 0.14 0.02 0.02 0.27 -0.16 0.52 -0.38 0.39 -0.34 0.78 -0.94 0.94 -1.45 0.15 -0.49 0.16 -1.14 0.03 -1.71 -0.05 -0.21 -0.04 -0.25 0.09 -0.25 0.13 0 0.25 0.69 0.22 1.23 -0.13 2.15 -2.02 4.05 -4.11 4.12 -0.26 0.01 -0.48 0 -0.64 -0.03z"/>
  <path d="M9.23 17.45 c0 -0.05 0.12 -0.09 0.25 -0.07 0.08 0.01 0.08 0.02 -0.08 0.07 -0.14 0.04 -0.17 0.05 -0.17 0.01z"/>
  <path d="M9.48 12.52 c-0.08 -0.07 -0.09 -0.11 -0.11 -0.30 -0.01 -0.15 0 -0.27 0.04 -0.40 0.33 -1.02 2.05 -2.52 4.95 -4.29 0.05 -0.03 -0.01 0.04 -0.13 0.15 -1.82 1.66 -3.20 3.10 -4.30 4.48 -0.39 0.49 -0.34 0.45 -0.46 0.36z"/>
 </g>
 <g fill="#002377">
  <path d="M26.44 41.27 l-5.34 -0.01 0 -2 0 -2 0.49 -0.01 0.49 -0.01 0.01 -4.14 c0.01 -3.75 0 -4.14 -0.05 -4.14 -0.03 0 -0.05 -0.02 -0.04 -0.05 0.01 -0.04 0.13 -0.09 0.43 -0.17 0.23 -0.06 0.53 -0.15 0.66 -0.20 0.28 -0.09 1.47 -0.71 1.45 -0.75 -0.01 -0.01 -0.07 -0.03 -0.14 -0.04 -0.07 -0.01 -0.27 -0.05 -0.45 -0.08 -0.32 -0.05 -0.33 -0.06 -0.33 -0.15 0 -0.08 0.03 -0.11 0.16 -0.18 1.04 -0.59 1.23 -0.75 1.71 -1.37 0.20 -0.27 0.36 -0.49 0.36 -0.50 -0.01 -0.01 -0.15 0.02 -0.31 0.05 -0.16 0.04 -0.32 0.07 -0.36 0.07 -0.08 0 -0.08 0.01 0.13 -0.28 l0.11 -0.15 -0.19 0.04 c-1.71 0.40 -1.79 0.41 -2.47 0.44 l-0.52 0.02 -0.08 -0.11 -0.07 -0.10 -0.01 -2.14 -0.01 -2.14 -0.49 -0.01 -0.49 -0.01 0 -0.47 0 -0.48 0.48 -0.18 c2.02 -0.75 4 -1.69 5.65 -2.67 l0.27 -0.17 2.14 0 2.14 0 0.93 0.93 0.92 0.92 0 4.22 0 4.22 -0.90 0.90 -0.90 0.90 0.90 0.90 0.90 0.90 0 4.18 0 4.18 -0.92 0.92 -0.93 0.92 -5.34 -0.01z m3.19 -7.01 l0 -3 -1.78 0 -1.78 0 0 2.98 c0 1.64 0.01 2.99 0.02 3 0.01 0.01 0.81 0.02 1.78 0.02 l1.76 0 0 -3z m0 -10.05 l0 -3.05 -1.77 0.01 -1.78 0.01 -0.01 2.04 c-0.01 1.80 0 2.04 0.04 2.04 0.06 0 0.06 0.04 0 0.12 -0.04 0.05 -0.05 0.23 -0.05 0.97 l0 0.91 1.78 0 1.78 0 0 -3.05z"/>
  <path d="M3.52 23.85 c0.01 -0.06 0.08 -0.33 0.17 -0.61 0.81 -2.55 2.41 -5.11 4.82 -7.68 0.60 -0.64 1.50 -1.50 2.11 -2.02 0.22 -0.18 0.41 -0.34 0.44 -0.36 0.02 -0.01 -0.08 0.14 -0.22 0.33 -0.63 0.84 -1.20 1.79 -1.43 2.36 -0.20 0.50 -0.25 1.02 -0.10 0.98 0.05 -0.01 0.06 0 0.06 0.06 0 0.05 -0.05 0.11 -0.19 0.20 -0.78 0.52 -1.54 1.15 -2.49 2.08 -1.29 1.27 -1.87 2.01 -2.48 3.14 -0.26 0.48 -0.42 0.93 -0.55 1.54 -0.01 0.06 -0.04 0.09 -0.08 0.09 -0.05 0 -0.06 -0.02 -0.05 -0.11z"/>
  <path d="M1.35 23.26 c0.02 -0.03 0.16 -0.20 0.33 -0.39 0.17 -0.19 0.30 -0.36 0.31 -0.39 0 -0.02 0.08 -0.15 0.18 -0.29 0.10 -0.14 0.27 -0.40 0.39 -0.60 0.12 -0.20 0.31 -0.50 0.42 -0.67 0.57 -0.88 1.02 -1.79 1.30 -2.67 0.13 -0.42 0.28 -1.03 0.28 -1.17 0 -0.05 0.04 -0.13 0.08 -0.19 0.08 -0.10 0.08 -0.11 0.08 -0.60 0 -0.57 -0.04 -0.90 -0.15 -1.28 -0.09 -0.30 -0.09 -0.30 0.21 -0.12 0.26 0.15 0.58 0.47 0.68 0.69 0.14 0.28 0.15 0.49 0.04 0.85 -0.09 0.31 -0.44 1.26 -0.55 1.50 -0.03 0.07 -0.10 0.23 -0.15 0.35 -0.14 0.33 -0.50 1.07 -0.71 1.45 -0.61 1.12 -1.24 2 -1.97 2.79 -0.32 0.35 -0.85 0.83 -0.78 0.73z"/>
  <path d="M18.53 20.38 c0 -0.04 0.83 -1.24 1.32 -1.91 1.93 -2.65 4.17 -5.07 6.42 -6.95 2.49 -2.07 5.16 -3.64 7.57 -4.44 0.36 -0.12 0.21 -0.04 -0.24 0.13 -1.13 0.42 -2.25 0.96 -3.47 1.70 -0.53 0.32 -1.21 0.76 -1.19 0.78 0.01 0.01 0.19 -0.05 0.41 -0.13 1.06 -0.39 2.23 -0.65 3.16 -0.70 0.34 -0.02 0.28 -0 -0.46 0.11 -1.14 0.18 -2.36 0.57 -3.44 1.11 -0.85 0.43 -1.03 0.55 -1.98 1.34 -0.66 0.55 -0.64 0.53 -0.55 0.50 1.30 -0.44 2.05 -0.65 2.83 -0.78 0.51 -0.09 1.03 -0.14 1.31 -0.13 0.12 0 0.17 0.01 0.10 0.02 -1.71 0.18 -3.23 0.60 -4.50 1.25 l-0.47 0.24 -0.92 0.92 c-0.78 0.78 -1.78 1.84 -1.76 1.86 0 0 0.23 -0.08 0.49 -0.18 1.38 -0.52 2.98 -0.92 4.15 -1.04 0.45 -0.04 1.10 -0.08 1.08 -0.06 -0.01 0.01 -0.17 0.03 -0.35 0.06 -1.99 0.23 -3.77 0.73 -5.27 1.49 -0.37 0.19 -0.61 0.34 -0.70 0.42 -0.45 0.45 -2.11 2.66 -3.04 4.04 -0.15 0.23 -0.23 0.31 -0.30 0.33 -0.05 0.01 -0.12 0.03 -0.15 0.04 -0.03 0.01 -0.06 0.01 -0.06 -0z"/>
  <path d="M9.84 11.70 c0.17 -0.35 0.83 -1.10 1.36 -1.53 0.16 -0.13 0.15 -0.11 -0.14 0.20 -0.28 0.31 -0.47 0.52 -1.16 1.32 l-0.14 0.16 0.07 -0.15z"/>
 </g>
 <g fill="#fdb232">
  <path d="M3.37 46.32 c0.30 -0.15 0.99 -0.48 1.52 -0.73 0.53 -0.25 1.83 -0.92 2.88 -1.49 1.05 -0.57 1.97 -1.04 2.04 -1.05 0.08 -0.02 0.14 -0.01 0.19 0.03 0.09 0.06 0.27 -0.05 -1.78 1.06 -1.96 1.06 -3.09 1.60 -4.36 2.08 -0.55 0.21 -1 0.38 -1.02 0.38 -0.01 0 0.22 -0.12 0.53 -0.27z"/>
  <path d="M14.60 43.71 c0.77 -0.18 1.40 -0.41 2.17 -0.80 0.67 -0.34 1.48 -0.88 2.01 -1.34 0.05 -0.05 0.06 -0.04 0.06 0.18 l0 0.23 -0.41 0.27 c-1.18 0.78 -2.33 1.25 -3.59 1.46 -0.60 0.10 -0.69 0.10 -0.24 -0z"/>
  <path d="M7.08 43.48 c0.04 -0.03 0.49 -0.44 1 -0.90 l0.93 -0.84 0.18 -0.40 c0.17 -0.38 0.19 -0.40 0.27 -0.38 0.16 0.04 0.35 0.15 0.50 0.29 0.12 0.11 0.14 0.15 0.10 0.18 -0.02 0.02 -0.60 0.43 -1.28 0.90 -1.51 1.05 -1.79 1.24 -1.70 1.16z"/>
  <path d="M12.16 42.81 c-0.13 -0.01 -0.16 -0.02 -0.14 -0.07 0.01 -0.03 0.04 -0.20 0.06 -0.38 0.11 -0.97 -0.26 -1.90 -0.99 -2.53 -0.19 -0.16 -0.52 -0.39 -0.63 -0.42 -0.08 -0.03 1.41 -0.56 1.55 -0.55 0.15 0.01 0.63 0.22 0.93 0.41 0.71 0.46 1.24 1.25 1.44 2.13 l0.04 0.19 -0.82 0.62 -0.82 0.62 -0.23 -0.01 c-0.13 -0 -0.30 -0.01 -0.39 -0.02z"/>
  <path d="M26.11 42.61 l-6.28 -0.01 0 -3.33 0 -3.33 0.48 0 0.48 0 0 -3.35 0 -3.36 -0.22 0.02 -0.23 0.02 0.22 -0.05 c1.39 -0.31 1.66 -0.41 2.78 -1 0.49 -0.26 0.89 -0.47 0.89 -0.48 0 -0.01 -0.24 -0.05 -0.54 -0.10 -0.78 -0.11 -0.76 -0.08 -0.36 -0.31 0.35 -0.20 0.79 -0.50 0.95 -0.65 0.05 -0.05 0.28 -0.33 0.50 -0.62 0.22 -0.29 0.41 -0.54 0.41 -0.55 0.01 -0.01 0.58 -0.15 0.92 -0.23 l0.10 -0.02 -0.08 0.11 c-0.04 0.06 -0.26 0.36 -0.49 0.65 -0.50 0.65 -0.75 0.87 -1.54 1.30 -0.44 0.24 -0.45 0.22 0.19 0.31 0.31 0.04 0.59 0.09 0.63 0.10 0.05 0.02 -0.13 0.12 -0.71 0.43 -0.83 0.44 -1.10 0.54 -1.98 0.76 l-0.52 0.13 -0.01 3.88 -0.01 3.88 -0.45 -0 c-0.25 -0 -0.47 0.01 -0.49 0.02 -0.03 0.02 -0.04 0.54 -0.03 2.46 l0.01 2.43 5.65 0.01 5.65 0.01 1.06 -1.06 1.06 -1.06 0 -4.35 0 -4.35 -0.82 -0.82 -0.82 -0.82 0.82 -0.82 0.82 -0.82 0 -4.38 0 -4.38 -1.06 -1.08 -1.06 -1.08 -1.90 0 -1.90 0 0.43 -0.29 c0.24 -0.16 0.52 -0.36 0.62 -0.43 l0.19 -0.14 1.46 0 1.46 0 1.31 1.31 1.31 1.31 0 4.78 0 4.78 -0.62 0.62 -0.62 0.62 0.62 0.62 0.62 0.62 0 4.75 0 4.75 -1.31 1.30 -1.31 1.30 -6.27 -0.01z"/>
  <path d="M15.75 42.01 c-0.06 -0.57 -0.28 -1.39 -0.51 -1.88 -0.39 -0.83 -0.93 -1.40 -1.64 -1.75 l-0.22 -0.11 0.26 -0.12 c0.14 -0.06 0.45 -0.21 0.68 -0.32 l0.42 -0.20 0.23 0.09 c0.89 0.35 1.73 1.18 2.33 2.30 l0.14 0.27 -0.35 0.68 c-0.20 0.38 -0.38 0.73 -0.41 0.79 -0.05 0.09 -0.13 0.14 -0.47 0.29 -0.22 0.10 -0.41 0.18 -0.42 0.18 -0.01 0 -0.02 -0.10 -0.04 -0.22z"/>
  <path d="M18.67 40.19 c-0.36 -1.35 -1.20 -2.36 -2.49 -3.01 l-0.35 -0.18 0.20 -0.13 c0.11 -0.07 0.33 -0.22 0.49 -0.34 0.27 -0.19 0.31 -0.21 0.47 -0.21 0.49 0 1.17 0.32 1.74 0.82 l0.12 0.11 0 1.48 c0 1.42 -0 1.48 -0.06 1.54 -0.06 0.06 -0.07 0.06 -0.10 -0.09z"/>
  <path d="M26.57 34.25 l0 -2.55 1.33 0 1.33 0 0 2.55 0 2.55 -1.33 0 -1.33 0 0 -2.55z m1.79 0.01 l0.01 -1.66 -0.45 0 -0.45 0 0 1.67 0 1.67 0.44 -0.01 0.44 -0.01 0.01 -1.66z"/>
  <path d="M18.52 35.98 c-0.28 -0.14 -0.71 -0.28 -0.88 -0.28 -0.07 0 -0.07 -0.02 0.11 -0.20 0.10 -0.11 0.23 -0.26 0.29 -0.34 l0.11 -0.13 0.33 0.01 c0.18 0.01 0.33 0.02 0.34 0.03 0.01 0.01 0.01 0.25 0.01 0.53 l-0.01 0.52 -0.30 -0.15z"/>
  <path d="M19.55 34.65 c-0.27 -0.15 -0.58 -0.25 -0.81 -0.25 -0.16 0 -0.18 -0.01 -0.17 -0.06 0.01 -0.03 0.06 -0.18 0.12 -0.33 0.12 -0.32 0.18 -0.74 0.16 -1 -0.01 -0.16 -0.01 -0.18 0.04 -0.16 0.15 0.05 0.43 0.26 0.66 0.46 l0.25 0.23 0 0.61 c0 0.34 -0.01 0.61 -0.02 0.61 -0.02 -0 -0.12 -0.06 -0.23 -0.12z"/>
  <path d="M19.70 32.20 c-0.04 -0.03 -0.04 -0.05 0.01 -0.18 0.09 -0.21 0.10 -0.21 0.09 0.01 -0.01 0.21 -0.02 0.22 -0.10 0.17z"/>
  <path d="M2.82 31.65 l-0.26 -0.50 0.04 -0.63 0.04 -0.63 0.13 -0.26 c0.38 -0.76 1.48 -1.46 3.06 -1.93 0.75 -0.23 2.50 -0.58 2.68 -0.55 0.05 0.01 0.05 0.02 -0.02 0.02 -0.05 0 -0.35 0.06 -0.67 0.12 -1.94 0.39 -3.26 0.96 -4.02 1.73 -0.20 0.20 -0.30 0.34 -0.40 0.53 l-0.13 0.26 -0.09 1.16 c-0.05 0.64 -0.10 1.17 -0.10 1.18 -0.01 0.01 -0.13 -0.21 -0.28 -0.49z"/>
  <path d="M18.57 32.04 c-0.11 -0.16 -0.32 -0.63 -0.39 -0.86 -0.13 -0.50 -0.09 -1.12 0.11 -1.51 0.09 -0.18 0.11 -0.19 0.24 -0.21 0.08 -0.01 0.15 -0.02 0.16 -0.01 0.02 0.03 -0.12 0.31 -0.24 0.46 -0.07 0.09 -0.12 0.17 -0.12 0.18 0 0.04 0.29 -0.25 0.44 -0.43 0.14 -0.18 0.16 -0.22 0.07 -0.23 -0.05 -0 0.43 -0.09 0.55 -0.09 0.08 -0.01 0.04 0.69 -0.08 1.25 -0.10 0.50 -0.39 1.20 -0.59 1.46 l-0.08 0.10 -0.07 -0.10z"/>
  <path d="M11.61 30.14 c-0.05 -0.01 -0.09 -0.08 -0.17 -0.34 -0.20 -0.63 -0.26 -0.99 -0.16 -1.13 0.06 -0.09 0.25 -0.18 0.37 -0.18 0.14 0 0.18 -0.06 0.18 -0.27 l0 -0.19 0.13 0 c0.10 0 0.15 0.02 0.21 0.09 0.32 0.35 1.05 0.66 1.89 0.81 0.75 0.14 1.84 0.17 2.89 0.09 l0.20 -0.01 -0.17 0.03 c-0.21 0.04 -1.42 0.16 -2.03 0.20 -0.94 0.07 -1.90 0.03 -2.31 -0.08 -0.09 -0.03 -0.18 -0.05 -0.19 -0.05 -0.01 0 -0.02 0.12 -0.02 0.28 l0 0.27 -0.34 0.26 c-0.19 0.14 -0.36 0.25 -0.38 0.25 -0.02 -0 -0.07 -0.01 -0.11 -0.02z"/>
  <path d="M6.63 30.06 c-0.05 -0.04 -0.09 -0.09 -0.09 -0.10 0 -0.05 0.37 -0.56 0.61 -0.85 0.24 -0.28 0.47 -0.48 0.72 -0.63 0.15 -0.09 0.23 -0.09 0.35 0 0.06 0.04 0.06 0.05 -0.07 0.27 -0.29 0.52 -0.74 1.01 -1.12 1.24 -0.25 0.14 -0.30 0.15 -0.40 0.07z"/>
  <path d="M10.18 26.86 c0.08 -0.05 0.30 -0.25 0.50 -0.44 0.20 -0.19 0.37 -0.35 0.37 -0.34 0.10 0.13 0.09 0.14 -0.31 0.50 -0.36 0.32 -0.40 0.35 -0.55 0.37 l-0.16 0.02 0.14 -0.10z"/>
  <path d="M26.57 24.23 l0 -2.60 1.33 0 1.33 0 0 2.60 0 2.60 -1.33 0 -1.33 0 0 -2.60z m1.79 -0.01 l-0.01 -1.71 -0.44 -0.01 -0.44 -0.01 0 1.72 0 1.72 0.45 0 0.45 0 -0.01 -1.71z"/>
  <path d="M18.77 26.65 c0 -0.01 0.02 -0.05 0.04 -0.09 0.02 -0.04 0.05 -0.14 0.06 -0.22 l0.02 -0.15 0.05 0.21 c0.03 0.11 0.04 0.21 0.03 0.22 -0.05 0.03 -0.20 0.05 -0.20 0.04z"/>
  <path d="M17.49 26.42 c-0.36 -0.24 -0.59 -0.45 -0.83 -0.75 -0.36 -0.45 -0.52 -0.91 -0.49 -1.39 0.02 -0.23 0.10 -0.49 0.17 -0.49 0.05 0 0.74 0.31 1.41 0.63 l0.60 0.29 0.09 0.21 c0.09 0.21 0.35 0.92 0.35 0.96 0 0.01 -0.04 -0.05 -0.10 -0.14 -0.19 -0.33 -0.76 -0.81 -1.40 -1.20 -0.56 -0.33 -0.65 -0.36 -0.20 -0.06 0.47 0.32 0.87 0.78 0.96 1.10 0.05 0.18 0.04 0.45 -0.02 0.61 -0.08 0.20 -0.20 0.39 -0.25 0.39 -0.02 0 -0.16 -0.08 -0.30 -0.18z"/>
  <path d="M5.15 26.37 c-0.59 -0.08 -0.97 -0.25 -1.30 -0.58 -0.34 -0.34 -0.39 -0.49 -0.40 -1.10 0 -0.57 0.05 -0.83 0.29 -1.39 0.09 -0.22 0.17 -0.39 0.18 -0.38 0.01 0.01 -0.04 0.16 -0.10 0.35 -0.46 1.41 0.13 2.10 1.42 1.67 0.99 -0.32 2.11 -1.10 3.26 -2.27 0.58 -0.59 0.74 -0.81 1.09 -1.54 0.62 -1.27 0.84 -2.58 0.61 -3.65 l-0.04 -0.18 -0.22 0.02 c-0.66 0.07 -1.68 0.59 -2.66 1.37 -0.43 0.34 -1.56 1.47 -1.90 1.90 -0.46 0.59 -0.47 0.59 -0.35 0.40 0.37 -0.57 1.04 -1.37 1.76 -2.08 1.08 -1.07 2.21 -1.93 3.19 -2.40 0.56 -0.28 0.85 -0.38 1.28 -0.47 0.92 -0.19 1.53 0.02 1.81 0.63 0.09 0.19 0.10 0.26 0.13 0.73 0.10 1.60 -0.17 2.91 -0.94 4.49 -0.28 0.58 -0.78 1.44 -0.96 1.65 -0.01 0.01 -0.04 -0.02 -0.07 -0.06 -0.05 -0.07 -0.07 -0.08 -0.26 -0.06 -0.70 0.07 -1.84 0.63 -2.96 1.46 -0.44 0.33 -1.05 0.84 -1.47 1.22 -0.25 0.23 -0.31 0.27 -0.45 0.29 -0.20 0.03 -0.70 0.02 -0.96 -0.01z"/>
  <path d="M21.42 24.77 c-0.15 -0.15 -0.35 -0.33 -0.44 -0.41 l-0.18 -0.14 0 -0.86 0 -0.86 -0.48 0 -0.48 0 0 -0.93 0 -0.93 0.41 -0.14 c0.22 -0.08 0.42 -0.14 0.43 -0.14 0.01 0 0.02 0.29 0.02 0.63 l0 0.63 0.50 0 0.50 0 0 1.70 c0 0.94 -0 1.70 -0.01 1.70 -0 0 -0.13 -0.12 -0.27 -0.27z"/>
  <path d="M19.70 23.47 c-0.04 -0.03 -0.03 -0.03 0.04 -0.03 0.05 0 0.09 0.02 0.09 0.03 0 0.04 -0.07 0.04 -0.13 0z"/>
  <path d="M18.64 23 c-0.17 -0.05 -0.19 -0.07 -0.29 -0.25 -0.14 -0.26 -0.30 -0.49 -0.49 -0.72 l-0.16 -0.19 0.19 -0.35 c0.18 -0.33 0.19 -0.35 0.33 -0.38 0.15 -0.04 0.47 -0.12 0.57 -0.15 0.03 -0.01 0.06 0 0.06 0.03 0 0.03 -0.03 0.06 -0.06 0.06 -0.04 0.01 -0.14 0.16 -0.25 0.37 l-0.19 0.36 0.18 0.21 c0.33 0.39 0.33 0.38 0.32 0.75 l-0.01 0.33 -0.18 -0.05z"/>
  <path d="M15.17 23 c-0.46 -0.08 -1 -0.32 -1.33 -0.59 -0.18 -0.14 -0.45 -0.51 -0.41 -0.55 0.01 -0.01 0.18 -0.07 0.36 -0.12 0.29 -0.08 0.40 -0.09 0.90 -0.09 0.75 -0 1.11 0.08 1.70 0.37 0.22 0.12 0.36 0.22 0.54 0.40 0.14 0.14 0.24 0.26 0.23 0.28 -0.02 0.04 -0.27 0.15 -0.58 0.23 -0.27 0.08 -1.12 0.11 -1.41 0.06z"/>
  <path d="M1.98 22.47 c0.02 -0.03 0.11 -0.17 0.22 -0.32 0.70 -1 1.26 -2.17 1.41 -2.98 0.06 -0.32 0.07 -0.79 0.02 -0.98 -0.03 -0.12 -0.03 -0.14 0.06 -0.27 0.05 -0.08 0.30 -0.35 0.55 -0.61 l0.47 -0.47 -0.02 0.22 c-0.03 0.32 -0.14 0.79 -0.29 1.26 -0.38 1.21 -1 2.34 -1.96 3.62 -0.29 0.38 -0.54 0.67 -0.45 0.52z"/>
  <path d="M13.45 15.23 c-0.03 -0.10 -0.06 -0.11 -0.30 -0.19 -0.15 -0.05 -0.38 -0.14 -0.52 -0.20 -0.37 -0.16 -0.87 -0.33 -1.28 -0.44 -0.20 -0.05 -0.37 -0.10 -0.38 -0.11 -0.01 -0.01 0.14 -0.22 0.33 -0.48 0.19 -0.26 0.56 -0.76 0.83 -1.11 l0.48 -0.65 0.36 -0.09 c0.20 -0.05 0.34 -0.07 0.33 -0.05 -0.03 0.04 -1.23 1.67 -1.54 2.09 -0.09 0.12 -0.16 0.23 -0.16 0.24 0 0.01 0.06 0.03 0.13 0.04 0.29 0.05 0.89 0.24 1.41 0.44 l0.56 0.22 -0.10 0.19 c-0.05 0.11 -0.10 0.20 -0.11 0.20 -0.01 0 -0.02 -0.05 -0.04 -0.11z"/>
  <path d="M30.70 14.92 c0.03 -0.03 0.19 -0.16 0.37 -0.31 3.29 -2.75 6.26 -6.52 7.73 -9.86 0.13 -0.29 0.24 -0.53 0.24 -0.54 0 -0.01 -0.30 -0.01 -0.66 -0.02 -0.55 -0 -0.61 -0.01 -0.38 -0.03 0.34 -0.03 1.54 -0.04 1.61 -0.01 0.04 0.01 0.01 0.11 -0.16 0.50 -0.77 1.74 -2.08 3.82 -3.58 5.66 -1.23 1.51 -2.73 3.03 -4.23 4.28 l-0.45 0.37 -0.27 0 c-0.23 0 -0.26 -0.01 -0.22 -0.04z"/>
  <path d="M4.98 14.39 c-0.11 -0.06 -0.34 -0.17 -0.52 -0.23 l-0.32 -0.12 -0.07 -0.17 c-0.04 -0.10 -0.07 -0.18 -0.06 -0.18 0 -0.01 0.29 0.10 0.63 0.23 l0.62 0.24 -0.02 0.15 c-0.01 0.08 -0.03 0.16 -0.04 0.17 -0.01 0.01 -0.11 -0.03 -0.22 -0.09z"/>
  <path d="M2.54 12.19 c0.41 -0.18 0.75 -0.42 0.97 -0.73 0.08 -0.11 0.29 -0.47 0.46 -0.79 l0.31 -0.59 0.33 -0.11 c0.18 -0.06 0.34 -0.10 0.35 -0.09 0.03 0.03 -0.65 1.33 -0.79 1.51 -0.37 0.47 -0.97 0.80 -1.58 0.86 l-0.23 0.02 0.19 -0.08z"/>
  <path d="M11.50 12.24 c0 -0.01 0.12 -0.19 0.27 -0.40 0.98 -1.44 2.72 -3.34 4.57 -5.02 0.67 -0.61 0.86 -0.76 1.32 -1.06 0.30 -0.20 0.60 -0.36 0.68 -0.38 0.08 -0.02 0.15 -0.03 0.16 -0.03 0 0.01 -0.12 0.12 -0.27 0.26 -2.94 2.63 -4.56 4.35 -5.83 6.17 -0.17 0.24 -0.19 0.26 -0.36 0.31 -0.10 0.03 -0.27 0.08 -0.36 0.11 -0.10 0.03 -0.18 0.06 -0.18 0.05z"/>
  <path d="M3.66 10.03 c0.27 -0.44 0.82 -0.99 1.32 -1.32 0.71 -0.46 1.85 -0.87 2.68 -0.96 0.14 -0.02 0.10 0 -0.19 0.08 -0.77 0.21 -1.45 0.52 -1.99 0.90 -0.31 0.22 -0.85 0.75 -1.02 1 -0.11 0.17 -0.13 0.18 -0.44 0.28 -0.18 0.06 -0.35 0.11 -0.38 0.12 -0.04 0.01 -0.03 -0.01 0.02 -0.09z"/>
  <path d="M9.40 9.35 c0 -0.04 0.56 -0.72 0.79 -0.96 0.42 -0.44 0.85 -0.77 1.64 -1.27 0.65 -0.41 0.74 -0.48 0.67 -0.50 -0.14 -0.04 -1.95 -0.29 -2.53 -0.35 -0.30 -0.03 -0.92 -0.06 -1.37 -0.07 l-0.82 -0.02 0.60 -0.03 c0.65 -0.03 1.62 0.01 2.40 0.10 0.45 0.05 2.39 0.31 2.41 0.33 0 0 -0.29 0.19 -0.65 0.42 -0.82 0.52 -1.12 0.75 -1.61 1.24 -0.25 0.25 -0.49 0.45 -0.67 0.57 -0.15 0.10 -0.40 0.26 -0.55 0.37 -0.27 0.19 -0.31 0.21 -0.31 0.18z"/>
  <path d="M28.66 6.48 c0.09 -0.15 0.25 -0.41 0.36 -0.58 0.64 -1.01 1.10 -2.07 1.38 -3.15 0.17 -0.68 0.23 -1.14 0.23 -1.76 l0 -0.51 0.30 -0.06 c0.16 -0.03 0.30 -0.05 0.31 -0.05 0.01 0 0.02 0.16 0.03 0.36 0.07 1.58 -0.56 3.48 -1.73 5.29 l-0.22 0.34 -0.39 0.18 c-0.21 0.10 -0.40 0.18 -0.41 0.19 -0.02 0.01 0.05 -0.10 0.14 -0.25z"/>
 </g>
</svg>